<mxfile host="app.diagrams.net" modified="2021-04-23T06:14:43.562Z" agent="5.0 (Windows NT 6.1; WOW64) AppleWebKit/537.36 (KHTML, like Gecko) Chrome/89.0.4389.128 Safari/537.36" etag="1kIB-dvvd3haTo3O7in6" version="14.6.3" type="github">
  <diagram id="gwXjZ_KhgnTB7TFwKm6p" name="第 1 页">
    <mxGraphModel dx="1422" dy="-1467" grid="0" gridSize="10" guides="1" tooltips="1" connect="1" arrows="1" fold="1" page="1" pageScale="1" pageWidth="827" pageHeight="1169" math="0" shadow="0">
      <root>
        <mxCell id="0" />
        <mxCell id="1" parent="0" />
        <mxCell id="Koj_lWtVOOEXYr1vXT_N-314" value="" style="rounded=0;whiteSpace=wrap;html=1;fillColor=#CCFFFF;fontSize=15;align=left;opacity=50;dashed=1;" parent="1" vertex="1">
          <mxGeometry x="600" y="7744" width="407" height="247" as="geometry" />
        </mxCell>
        <mxCell id="Koj_lWtVOOEXYr1vXT_N-277" value="" style="rounded=0;whiteSpace=wrap;html=1;fillColor=#CCFFFF;fontSize=12;align=left;opacity=50;dashed=1;" parent="1" vertex="1">
          <mxGeometry x="1249.25" y="7142" width="695.75" height="202" as="geometry" />
        </mxCell>
        <mxCell id="Koj_lWtVOOEXYr1vXT_N-271" value="" style="rounded=0;whiteSpace=wrap;html=1;fillColor=#CCFFFF;fontSize=12;align=left;opacity=50;dashed=1;" parent="1" vertex="1">
          <mxGeometry x="516" y="7142" width="709" height="202" as="geometry" />
        </mxCell>
        <mxCell id="Koj_lWtVOOEXYr1vXT_N-49" value="" style="rounded=0;whiteSpace=wrap;html=1;fillColor=#CCFFFF;fontSize=12;align=left;opacity=50;dashed=1;" parent="1" vertex="1">
          <mxGeometry x="576" y="4558" width="1008" height="373" as="geometry" />
        </mxCell>
        <mxCell id="6hJ7_hepYG0XDSpaTRYl-1" value="" style="rounded=0;whiteSpace=wrap;html=1;strokeColor=#FF6666;fontColor=#007FFF;fillColor=#D5E8D4;fontSize=12;" parent="1" vertex="1">
          <mxGeometry x="506.25" y="2701" width="571" height="325" as="geometry" />
        </mxCell>
        <mxCell id="6hJ7_hepYG0XDSpaTRYl-2" value="" style="rounded=0;whiteSpace=wrap;html=1;strokeColor=#FF6666;fontColor=#007FFF;fillColor=#FFFFCC;fontSize=12;" parent="1" vertex="1">
          <mxGeometry x="1076.25" y="2386" width="330" height="640" as="geometry" />
        </mxCell>
        <mxCell id="6hJ7_hepYG0XDSpaTRYl-3" style="edgeStyle=elbowEdgeStyle;rounded=0;orthogonalLoop=1;jettySize=auto;html=1;exitX=1;exitY=0.5;exitDx=0;exitDy=0;entryX=0;entryY=0.5;entryDx=0;entryDy=0;fontColor=#007FFF;fontSize=12;" parent="1" source="6hJ7_hepYG0XDSpaTRYl-5" target="6hJ7_hepYG0XDSpaTRYl-11" edge="1">
          <mxGeometry relative="1" as="geometry">
            <Array as="points">
              <mxPoint x="243.25" y="2614" />
              <mxPoint x="243.25" y="2573" />
            </Array>
          </mxGeometry>
        </mxCell>
        <mxCell id="6hJ7_hepYG0XDSpaTRYl-4" style="edgeStyle=elbowEdgeStyle;rounded=0;orthogonalLoop=1;jettySize=auto;html=1;exitX=1;exitY=0.5;exitDx=0;exitDy=0;fontColor=#007FFF;fontSize=12;" parent="1" source="6hJ7_hepYG0XDSpaTRYl-5" target="6hJ7_hepYG0XDSpaTRYl-9" edge="1">
          <mxGeometry relative="1" as="geometry">
            <Array as="points">
              <mxPoint x="244.25" y="2674" />
              <mxPoint x="244.25" y="2664" />
              <mxPoint x="244.25" y="2683" />
            </Array>
          </mxGeometry>
        </mxCell>
        <mxCell id="6hJ7_hepYG0XDSpaTRYl-5" value="&lt;&lt;PinpointAgent&gt;&gt;&#xa;启动" style="shadow=1;fillColor=#77e6cb;strokeColor=none;fontSize=12;" parent="1" vertex="1">
          <mxGeometry x="23" y="2606" width="170" height="50" as="geometry" />
        </mxCell>
        <mxCell id="6hJ7_hepYG0XDSpaTRYl-6" style="edgeStyle=elbowEdgeStyle;rounded=0;orthogonalLoop=1;jettySize=auto;html=1;exitX=1;exitY=0.5;exitDx=0;exitDy=0;fontColor=#007FFF;fontSize=12;" parent="1" source="6hJ7_hepYG0XDSpaTRYl-9" target="6hJ7_hepYG0XDSpaTRYl-14" edge="1">
          <mxGeometry relative="1" as="geometry" />
        </mxCell>
        <mxCell id="6hJ7_hepYG0XDSpaTRYl-7" style="edgeStyle=elbowEdgeStyle;rounded=0;orthogonalLoop=1;jettySize=auto;html=1;exitX=1;exitY=0.5;exitDx=0;exitDy=0;entryX=0;entryY=0.5;entryDx=0;entryDy=0;fontColor=#007FFF;fontSize=12;" parent="1" source="6hJ7_hepYG0XDSpaTRYl-9" target="6hJ7_hepYG0XDSpaTRYl-15" edge="1">
          <mxGeometry relative="1" as="geometry" />
        </mxCell>
        <mxCell id="6hJ7_hepYG0XDSpaTRYl-8" style="edgeStyle=elbowEdgeStyle;rounded=0;orthogonalLoop=1;jettySize=auto;html=1;exitX=1;exitY=0.5;exitDx=0;exitDy=0;fontColor=#007FFF;fontSize=12;" parent="1" source="6hJ7_hepYG0XDSpaTRYl-9" target="6hJ7_hepYG0XDSpaTRYl-16" edge="1">
          <mxGeometry relative="1" as="geometry" />
        </mxCell>
        <mxCell id="6hJ7_hepYG0XDSpaTRYl-9" value="&lt;&lt;PinpointAgent&gt;&gt;&#xa;其他数据采集" style="shadow=1;fillColor=#77e6cb;strokeColor=none;fontSize=12;" parent="1" vertex="1">
          <mxGeometry x="296.25" y="2716" width="170" height="50" as="geometry" />
        </mxCell>
        <mxCell id="6hJ7_hepYG0XDSpaTRYl-10" style="edgeStyle=elbowEdgeStyle;rounded=0;orthogonalLoop=1;jettySize=auto;html=1;exitX=1;exitY=0.5;exitDx=0;exitDy=0;entryX=0;entryY=0.5;entryDx=0;entryDy=0;fontColor=#007FFF;fontSize=12;" parent="1" source="6hJ7_hepYG0XDSpaTRYl-11" target="6hJ7_hepYG0XDSpaTRYl-12" edge="1">
          <mxGeometry relative="1" as="geometry" />
        </mxCell>
        <mxCell id="6hJ7_hepYG0XDSpaTRYl-11" value="&lt;&lt;PinpointAgent&gt;&gt;&#xa;字节码增强" style="shadow=1;fillColor=#77e6cb;strokeColor=none;fontSize=12;" parent="1" vertex="1">
          <mxGeometry x="289.75" y="2486" width="170" height="50" as="geometry" />
        </mxCell>
        <mxCell id="6hJ7_hepYG0XDSpaTRYl-12" value="&lt;&lt;PinpointAgent-Plugins&gt;&gt;&#xa;&#xa;rmb-plugin&#xa;mysql-jdbc-driver-plugin&#xa;mariadb-jdbc-driver-plugin&#xa;redis-plugin&#xa;tomcat-plugin&#xa;spring-plugin&#xa;httpclient3-plugin&#xa;httpclient4-plugin&#xa;jdk-http-plugin&#xa;okhttp-plugin&#xa;user-plugin&#xa;&#xa;undertow-plugin&#xa;undertow-servlet-plugin&#xa;&#xa;dubbo-plugin&#xa;hbase-plugin&#xa;kafka-plugin&#xa;openid-plugin" style="shadow=1;strokeColor=none;fillColor=#E6D0DE;fontSize=12;" parent="1" vertex="1">
          <mxGeometry x="648.75" y="2346" width="170" height="330" as="geometry" />
        </mxCell>
        <mxCell id="6hJ7_hepYG0XDSpaTRYl-13" style="edgeStyle=orthogonalEdgeStyle;rounded=0;orthogonalLoop=1;jettySize=auto;html=1;exitX=1;exitY=0.5;exitDx=0;exitDy=0;fontColor=#007FFF;entryX=0.5;entryY=0;entryDx=0;entryDy=0;fontSize=12;" parent="1" source="6hJ7_hepYG0XDSpaTRYl-14" target="6hJ7_hepYG0XDSpaTRYl-18" edge="1">
          <mxGeometry relative="1" as="geometry">
            <mxPoint x="1380.25" y="2686" as="targetPoint" />
            <Array as="points">
              <mxPoint x="1273.25" y="2741" />
            </Array>
          </mxGeometry>
        </mxCell>
        <mxCell id="6hJ7_hepYG0XDSpaTRYl-14" value="&lt;&lt;PinpointAgent-Profiler&gt;&gt;&#xa;Agent Info" style="shadow=1;fillColor=#77e6cb;strokeColor=none;fontStyle=0;fontSize=12;" parent="1" vertex="1">
          <mxGeometry x="645.25" y="2716" width="170" height="50" as="geometry" />
        </mxCell>
        <mxCell id="6hJ7_hepYG0XDSpaTRYl-15" value="&lt;&lt;PinpointAgent-Profiler&gt;&gt;&#xa;Stat Monitor" style="shadow=1;fillColor=#77e6cb;strokeColor=none;fontStyle=0;fontSize=12;" parent="1" vertex="1">
          <mxGeometry x="645.25" y="2836" width="170" height="50" as="geometry" />
        </mxCell>
        <mxCell id="6hJ7_hepYG0XDSpaTRYl-16" value="&lt;&lt;PinpointAgent-Profiler&gt;&gt;&#xa;Deadlock Monitor" style="shadow=1;fillColor=#77e6cb;strokeColor=none;fontStyle=0;fontSize=12;" parent="1" vertex="1">
          <mxGeometry x="645.25" y="2956" width="170" height="50" as="geometry" />
        </mxCell>
        <mxCell id="6hJ7_hepYG0XDSpaTRYl-17" value="&lt;&lt;PinpointAgent-Profiler&gt;&gt;&#xa;&#xa;Activethread Collector&#xa;&#xa;Buffer Collector&#xa;Cpu Collector&#xa;Datasource Collector&#xa;Deadlock Collector&#xa;Filedescriptor Collector&#xa;GC Collector&#xa;Memory Collector&#xa;&#xa;Response Time Collector&#xa;Transaction Collector&#xa;" style="shadow=1;fillColor=#77e6cb;strokeColor=none;fontStyle=0;fontSize=12;" parent="1" vertex="1">
          <mxGeometry x="870.75" y="2753.5" width="170" height="215" as="geometry" />
        </mxCell>
        <mxCell id="6hJ7_hepYG0XDSpaTRYl-18" value="TCP Data Sender" style="shadow=1;fillColor=#77e6cb;strokeColor=none;fontStyle=0;fontSize=12;" parent="1" vertex="1">
          <mxGeometry x="1188.25" y="2836" width="170" height="50" as="geometry" />
        </mxCell>
        <mxCell id="6hJ7_hepYG0XDSpaTRYl-19" value="Pinpoint Collector" style="shadow=1;fillColor=#77e6cb;strokeColor=none;fontStyle=0;fontSize=12;" parent="1" vertex="1">
          <mxGeometry x="1526.25" y="2576" width="170" height="50" as="geometry" />
        </mxCell>
        <mxCell id="6hJ7_hepYG0XDSpaTRYl-20" style="edgeStyle=orthogonalEdgeStyle;rounded=0;orthogonalLoop=1;jettySize=auto;html=1;exitX=1;exitY=0.5;exitDx=0;exitDy=0;entryX=0.462;entryY=0.98;entryDx=0;entryDy=0;fontColor=#007FFF;entryPerimeter=0;fontSize=12;" parent="1" source="6hJ7_hepYG0XDSpaTRYl-16" target="6hJ7_hepYG0XDSpaTRYl-18" edge="1">
          <mxGeometry relative="1" as="geometry">
            <mxPoint x="843.5" y="2946" as="sourcePoint" />
            <mxPoint x="1408" y="3046" as="targetPoint" />
            <Array as="points">
              <mxPoint x="1267.25" y="2981" />
              <mxPoint x="1267.25" y="2885" />
            </Array>
          </mxGeometry>
        </mxCell>
        <mxCell id="6hJ7_hepYG0XDSpaTRYl-21" value="" style="endArrow=classic;html=1;fontColor=#007FFF;exitX=1;exitY=0.5;exitDx=0;exitDy=0;entryX=0;entryY=0.5;entryDx=0;entryDy=0;fontSize=12;" parent="1" source="6hJ7_hepYG0XDSpaTRYl-15" target="6hJ7_hepYG0XDSpaTRYl-17" edge="1">
          <mxGeometry width="50" height="50" relative="1" as="geometry">
            <mxPoint x="926.25" y="2846" as="sourcePoint" />
            <mxPoint x="976.25" y="2796" as="targetPoint" />
          </mxGeometry>
        </mxCell>
        <mxCell id="6hJ7_hepYG0XDSpaTRYl-22" value="" style="endArrow=classic;html=1;fontColor=#007FFF;entryX=0;entryY=0.5;entryDx=0;entryDy=0;fontSize=12;" parent="1" source="6hJ7_hepYG0XDSpaTRYl-17" target="6hJ7_hepYG0XDSpaTRYl-18" edge="1">
          <mxGeometry width="50" height="50" relative="1" as="geometry">
            <mxPoint x="1219.25" y="2860.5" as="sourcePoint" />
            <mxPoint x="1276.25" y="2861" as="targetPoint" />
          </mxGeometry>
        </mxCell>
        <mxCell id="6hJ7_hepYG0XDSpaTRYl-23" value="" style="endArrow=classic;html=1;fontColor=#007FFF;exitX=1;exitY=0.5;exitDx=0;exitDy=0;entryX=0.5;entryY=1;entryDx=0;entryDy=0;fontSize=12;" parent="1" source="6hJ7_hepYG0XDSpaTRYl-18" target="6hJ7_hepYG0XDSpaTRYl-19" edge="1">
          <mxGeometry width="50" height="50" relative="1" as="geometry">
            <mxPoint x="1463.25" y="2860.5" as="sourcePoint" />
            <mxPoint x="1593.25" y="2860.5" as="targetPoint" />
          </mxGeometry>
        </mxCell>
        <mxCell id="6hJ7_hepYG0XDSpaTRYl-24" value="UPD Data Sender" style="shadow=1;fillColor=#77e6cb;strokeColor=none;fontStyle=0;fontSize=12;" parent="1" vertex="1">
          <mxGeometry x="1164.25" y="2486" width="170" height="50" as="geometry" />
        </mxCell>
        <mxCell id="6hJ7_hepYG0XDSpaTRYl-25" value="" style="endArrow=classic;html=1;fontColor=#007FFF;entryX=0;entryY=0.5;entryDx=0;entryDy=0;exitX=1;exitY=0.5;exitDx=0;exitDy=0;fontSize=12;" parent="1" source="6hJ7_hepYG0XDSpaTRYl-12" target="6hJ7_hepYG0XDSpaTRYl-24" edge="1">
          <mxGeometry width="50" height="50" relative="1" as="geometry">
            <mxPoint x="856.25" y="2480" as="sourcePoint" />
            <mxPoint x="975.75" y="2480.29" as="targetPoint" />
          </mxGeometry>
        </mxCell>
        <mxCell id="6hJ7_hepYG0XDSpaTRYl-26" value="Trace/ Span" style="edgeLabel;html=1;align=center;verticalAlign=middle;resizable=0;points=[];fontColor=#007FFF;fontSize=12;" parent="6hJ7_hepYG0XDSpaTRYl-25" vertex="1" connectable="0">
          <mxGeometry x="-0.1172" y="1" relative="1" as="geometry">
            <mxPoint x="-1.8100000000000023" y="-10" as="offset" />
          </mxGeometry>
        </mxCell>
        <mxCell id="6hJ7_hepYG0XDSpaTRYl-27" value="" style="endArrow=classic;html=1;fontColor=#007FFF;exitX=1;exitY=0.5;exitDx=0;exitDy=0;entryX=0.5;entryY=0;entryDx=0;entryDy=0;fontSize=12;" parent="1" source="6hJ7_hepYG0XDSpaTRYl-24" target="6hJ7_hepYG0XDSpaTRYl-19" edge="1">
          <mxGeometry width="50" height="50" relative="1" as="geometry">
            <mxPoint x="1168.75" y="2466" as="sourcePoint" />
            <mxPoint x="1329.75" y="2466" as="targetPoint" />
          </mxGeometry>
        </mxCell>
        <mxCell id="6hJ7_hepYG0XDSpaTRYl-28" value="异步任务" style="text;html=1;align=center;verticalAlign=middle;resizable=0;points=[];autosize=1;fontColor=#007FFF;fontSize=12;" parent="1" vertex="1">
          <mxGeometry x="1079.94" y="2401" width="58" height="18" as="geometry" />
        </mxCell>
        <mxCell id="6hJ7_hepYG0XDSpaTRYl-29" value="异步任务" style="text;html=1;align=center;verticalAlign=middle;resizable=0;points=[];autosize=1;fontColor=#007FFF;fontSize=12;" parent="1" vertex="1">
          <mxGeometry x="513.5" y="2708" width="58" height="18" as="geometry" />
        </mxCell>
        <mxCell id="6hJ7_hepYG0XDSpaTRYl-30" value="" style="rounded=0;whiteSpace=wrap;html=1;strokeColor=#FF6666;fontColor=#007FFF;fillColor=#D5E8D4;fontSize=12;" parent="1" vertex="1">
          <mxGeometry x="500.94" y="3484" width="571" height="111" as="geometry" />
        </mxCell>
        <mxCell id="6hJ7_hepYG0XDSpaTRYl-31" value="" style="rounded=0;whiteSpace=wrap;html=1;strokeColor=#FF6666;fontColor=#007FFF;fillColor=#FFFFCC;fontSize=12;" parent="1" vertex="1">
          <mxGeometry x="1074.25" y="3156" width="330" height="440" as="geometry" />
        </mxCell>
        <mxCell id="6hJ7_hepYG0XDSpaTRYl-32" style="edgeStyle=elbowEdgeStyle;rounded=0;orthogonalLoop=1;jettySize=auto;html=1;exitX=1;exitY=0.5;exitDx=0;exitDy=0;entryX=0;entryY=0.5;entryDx=0;entryDy=0;fontColor=#007FFF;fontSize=12;" parent="1" source="6hJ7_hepYG0XDSpaTRYl-34" target="6hJ7_hepYG0XDSpaTRYl-40" edge="1">
          <mxGeometry relative="1" as="geometry">
            <Array as="points">
              <mxPoint x="241.25" y="3384" />
              <mxPoint x="241.25" y="3343" />
            </Array>
          </mxGeometry>
        </mxCell>
        <mxCell id="6hJ7_hepYG0XDSpaTRYl-33" style="edgeStyle=elbowEdgeStyle;rounded=0;orthogonalLoop=1;jettySize=auto;html=1;exitX=1;exitY=0.5;exitDx=0;exitDy=0;fontColor=#007FFF;fontSize=12;" parent="1" source="6hJ7_hepYG0XDSpaTRYl-34" target="6hJ7_hepYG0XDSpaTRYl-38" edge="1">
          <mxGeometry relative="1" as="geometry">
            <Array as="points">
              <mxPoint x="242.25" y="3444" />
              <mxPoint x="242.25" y="3434" />
              <mxPoint x="242.25" y="3453" />
            </Array>
          </mxGeometry>
        </mxCell>
        <mxCell id="6hJ7_hepYG0XDSpaTRYl-34" value="&lt;&lt;PinpointAgent&gt;&gt;&#xa;启动" style="shadow=1;fillColor=#77e6cb;strokeColor=none;fontSize=12;" parent="1" vertex="1">
          <mxGeometry x="21" y="3376" width="170" height="50" as="geometry" />
        </mxCell>
        <mxCell id="6hJ7_hepYG0XDSpaTRYl-35" style="edgeStyle=elbowEdgeStyle;rounded=0;orthogonalLoop=1;jettySize=auto;html=1;exitX=1;exitY=0.5;exitDx=0;exitDy=0;fontColor=#007FFF;fontSize=12;" parent="1" source="6hJ7_hepYG0XDSpaTRYl-38" target="6hJ7_hepYG0XDSpaTRYl-43" edge="1">
          <mxGeometry relative="1" as="geometry" />
        </mxCell>
        <mxCell id="6hJ7_hepYG0XDSpaTRYl-38" value="&lt;&lt;PinpointAgent&gt;&gt;&#xa;其他数据采集" style="shadow=1;fillColor=#77e6cb;strokeColor=none;fontSize=12;" parent="1" vertex="1">
          <mxGeometry x="287.75" y="3509" width="170" height="50" as="geometry" />
        </mxCell>
        <mxCell id="6hJ7_hepYG0XDSpaTRYl-39" style="edgeStyle=elbowEdgeStyle;rounded=0;orthogonalLoop=1;jettySize=auto;html=1;exitX=1;exitY=0.5;exitDx=0;exitDy=0;entryX=0;entryY=0.5;entryDx=0;entryDy=0;fontColor=#007FFF;fontSize=12;" parent="1" source="6hJ7_hepYG0XDSpaTRYl-40" target="6hJ7_hepYG0XDSpaTRYl-41" edge="1">
          <mxGeometry relative="1" as="geometry" />
        </mxCell>
        <mxCell id="6hJ7_hepYG0XDSpaTRYl-40" value="&lt;&lt;PinpointAgent&gt;&gt;&#xa;字节码增强" style="shadow=1;fillColor=#77e6cb;strokeColor=none;fontSize=12;" parent="1" vertex="1">
          <mxGeometry x="287.75" y="3256" width="170" height="50" as="geometry" />
        </mxCell>
        <mxCell id="6hJ7_hepYG0XDSpaTRYl-41" value="&lt;&lt;PinpointAgent-Plugins&gt;&gt;&#xa;&#xa;rmb-plugin&#xa;mysql-jdbc-driver-plugin&#xa;mariadb-jdbc-driver-plugin&#xa;redis-plugin&#xa;tomcat-plugin&#xa;spring-plugin&#xa;httpclient3-plugin&#xa;httpclient4-plugin&#xa;jdk-http-plugin&#xa;okhttp-plugin&#xa;user-plugin" style="shadow=1;strokeColor=none;fillColor=#E6D0DE;fontSize=12;" parent="1" vertex="1">
          <mxGeometry x="657" y="3139.25" width="204.25" height="283.5" as="geometry" />
        </mxCell>
        <mxCell id="6hJ7_hepYG0XDSpaTRYl-67" style="edgeStyle=orthogonalEdgeStyle;rounded=0;orthogonalLoop=1;jettySize=auto;html=1;strokeWidth=1;fontSize=12;" parent="1" source="6hJ7_hepYG0XDSpaTRYl-43" target="6hJ7_hepYG0XDSpaTRYl-61" edge="1">
          <mxGeometry relative="1" as="geometry" />
        </mxCell>
        <mxCell id="6hJ7_hepYG0XDSpaTRYl-43" value="&lt;&lt;PinpointAgent-Profiler&gt;&gt;&#xa;Agent Info" style="shadow=1;fillColor=#77e6cb;strokeColor=none;fontStyle=0;fontSize=12;" parent="1" vertex="1">
          <mxGeometry x="653" y="3509" width="170" height="50" as="geometry" />
        </mxCell>
        <mxCell id="6hJ7_hepYG0XDSpaTRYl-48" value="Pinpoint Collector" style="shadow=1;fillColor=#77e6cb;strokeColor=none;fontStyle=0;fontSize=12;" parent="1" vertex="1">
          <mxGeometry x="1524.25" y="3346" width="170" height="50" as="geometry" />
        </mxCell>
        <mxCell id="6hJ7_hepYG0XDSpaTRYl-53" value="UPD Data Sender" style="shadow=1;fillColor=#77e6cb;strokeColor=none;fontStyle=0;fontSize=12;" parent="1" vertex="1">
          <mxGeometry x="1162.25" y="3256" width="170" height="50" as="geometry" />
        </mxCell>
        <mxCell id="6hJ7_hepYG0XDSpaTRYl-54" value="" style="endArrow=classic;html=1;fontColor=#007FFF;entryX=0;entryY=0.5;entryDx=0;entryDy=0;exitX=1;exitY=0.5;exitDx=0;exitDy=0;fontSize=12;" parent="1" source="6hJ7_hepYG0XDSpaTRYl-41" target="6hJ7_hepYG0XDSpaTRYl-53" edge="1">
          <mxGeometry width="50" height="50" relative="1" as="geometry">
            <mxPoint x="854.25" y="3250" as="sourcePoint" />
            <mxPoint x="973.75" y="3250.29" as="targetPoint" />
          </mxGeometry>
        </mxCell>
        <mxCell id="6hJ7_hepYG0XDSpaTRYl-55" value="Trace/ Span" style="edgeLabel;html=1;align=center;verticalAlign=middle;resizable=0;points=[];fontColor=#007FFF;fontSize=12;" parent="6hJ7_hepYG0XDSpaTRYl-54" vertex="1" connectable="0">
          <mxGeometry x="-0.1172" y="1" relative="1" as="geometry">
            <mxPoint x="-1.8100000000000023" y="-10" as="offset" />
          </mxGeometry>
        </mxCell>
        <mxCell id="6hJ7_hepYG0XDSpaTRYl-56" value="" style="endArrow=classic;html=1;fontColor=#007FFF;exitX=1;exitY=0.5;exitDx=0;exitDy=0;entryX=0.5;entryY=0;entryDx=0;entryDy=0;fontSize=12;" parent="1" source="6hJ7_hepYG0XDSpaTRYl-53" target="6hJ7_hepYG0XDSpaTRYl-48" edge="1">
          <mxGeometry width="50" height="50" relative="1" as="geometry">
            <mxPoint x="1166.75" y="3236" as="sourcePoint" />
            <mxPoint x="1327.75" y="3236" as="targetPoint" />
            <Array as="points">
              <mxPoint x="1609" y="3281" />
            </Array>
          </mxGeometry>
        </mxCell>
        <mxCell id="6hJ7_hepYG0XDSpaTRYl-57" value="异步任务" style="text;html=1;align=center;verticalAlign=middle;resizable=0;points=[];autosize=1;fontColor=#007FFF;fontSize=12;" parent="1" vertex="1">
          <mxGeometry x="1077.94" y="3171" width="58" height="18" as="geometry" />
        </mxCell>
        <mxCell id="6hJ7_hepYG0XDSpaTRYl-58" value="异步任务" style="text;html=1;align=center;verticalAlign=middle;resizable=0;points=[];autosize=1;fontColor=#007FFF;fontSize=12;" parent="1" vertex="1">
          <mxGeometry x="512.25" y="3490" width="58" height="18" as="geometry" />
        </mxCell>
        <mxCell id="6hJ7_hepYG0XDSpaTRYl-59" value="管理台" style="shadow=1;fillColor=#77e6cb;strokeColor=none;fontStyle=0;fontSize=12;" parent="1" vertex="1">
          <mxGeometry x="1526.25" y="3495" width="170" height="50" as="geometry" />
        </mxCell>
        <mxCell id="6hJ7_hepYG0XDSpaTRYl-60" value="" style="endArrow=classic;html=1;fontColor=#007FFF;exitX=0;exitY=0.5;exitDx=0;exitDy=0;strokeColor=#77E6CB;strokeWidth=2;fontSize=12;" parent="1" source="6hJ7_hepYG0XDSpaTRYl-59" target="6hJ7_hepYG0XDSpaTRYl-61" edge="1">
          <mxGeometry width="50" height="50" relative="1" as="geometry">
            <mxPoint x="1342.25" y="3291" as="sourcePoint" />
            <mxPoint x="1408" y="3547" as="targetPoint" />
          </mxGeometry>
        </mxCell>
        <mxCell id="6hJ7_hepYG0XDSpaTRYl-61" value="TCP Data Sender/Revicer" style="shadow=1;fillColor=#77e6cb;strokeColor=none;fontStyle=0;fontSize=12;" parent="1" vertex="1">
          <mxGeometry x="1164.25" y="3493" width="181" height="50" as="geometry" />
        </mxCell>
        <mxCell id="Koj_lWtVOOEXYr1vXT_N-4" style="edgeStyle=orthogonalEdgeStyle;rounded=0;orthogonalLoop=1;jettySize=auto;html=1;exitX=1;exitY=0.5;exitDx=0;exitDy=0;entryX=0;entryY=0.5;entryDx=0;entryDy=0;fontSize=12;" parent="1" source="Koj_lWtVOOEXYr1vXT_N-1" target="Koj_lWtVOOEXYr1vXT_N-3" edge="1">
          <mxGeometry relative="1" as="geometry" />
        </mxCell>
        <mxCell id="Koj_lWtVOOEXYr1vXT_N-1" value="AgentMain" style="shadow=1;fillColor=#77e6cb;strokeColor=none;fontSize=12;" parent="1" vertex="1">
          <mxGeometry x="21" y="3767" width="170" height="50" as="geometry" />
        </mxCell>
        <mxCell id="Koj_lWtVOOEXYr1vXT_N-2" value="&lt;font style=&quot;font-size: 18px&quot;&gt;Elastic APM Agent&lt;/font&gt;" style="text;html=1;strokeColor=none;fillColor=none;align=center;verticalAlign=middle;whiteSpace=wrap;rounded=0;fontStyle=1" parent="1" vertex="1">
          <mxGeometry x="47" y="3720" width="184" height="20" as="geometry" />
        </mxCell>
        <mxCell id="Koj_lWtVOOEXYr1vXT_N-8" style="edgeStyle=orthogonalEdgeStyle;rounded=0;orthogonalLoop=1;jettySize=auto;html=1;exitX=1;exitY=0.5;exitDx=0;exitDy=0;fontSize=12;" parent="1" source="Koj_lWtVOOEXYr1vXT_N-3" target="Koj_lWtVOOEXYr1vXT_N-7" edge="1">
          <mxGeometry relative="1" as="geometry" />
        </mxCell>
        <mxCell id="Koj_lWtVOOEXYr1vXT_N-3" value="ElasticApmAgent" style="shadow=1;fillColor=#77e6cb;strokeColor=none;fontSize=12;" parent="1" vertex="1">
          <mxGeometry x="372" y="3767" width="170" height="50" as="geometry" />
        </mxCell>
        <mxCell id="Koj_lWtVOOEXYr1vXT_N-6" value="init(), 反射初始化" style="text;html=1;align=center;verticalAlign=middle;resizable=0;points=[];autosize=1;fontSize=12;" parent="1" vertex="1">
          <mxGeometry x="216" y="3767" width="100" height="18" as="geometry" />
        </mxCell>
        <mxCell id="Koj_lWtVOOEXYr1vXT_N-14" style="edgeStyle=orthogonalEdgeStyle;rounded=0;orthogonalLoop=1;jettySize=auto;html=1;exitX=1;exitY=0.5;exitDx=0;exitDy=0;fontSize=12;" parent="1" source="Koj_lWtVOOEXYr1vXT_N-7" target="Koj_lWtVOOEXYr1vXT_N-11" edge="1">
          <mxGeometry relative="1" as="geometry" />
        </mxCell>
        <mxCell id="Koj_lWtVOOEXYr1vXT_N-7" value="Tracer" style="shadow=1;fillColor=#77e6cb;strokeColor=none;fontSize=12;" parent="1" vertex="1">
          <mxGeometry x="717" y="3767" width="170" height="50" as="geometry" />
        </mxCell>
        <mxCell id="Koj_lWtVOOEXYr1vXT_N-9" value="build()" style="text;html=1;align=center;verticalAlign=middle;resizable=0;points=[];autosize=1;fontSize=12;" parent="1" vertex="1">
          <mxGeometry x="600" y="3773" width="43" height="18" as="geometry" />
        </mxCell>
        <mxCell id="Koj_lWtVOOEXYr1vXT_N-10" value="GlobalTracer.init()" style="shadow=1;fillColor=#77e6cb;strokeColor=none;fontSize=12;" parent="1" vertex="1">
          <mxGeometry x="717" y="3855" width="170" height="50" as="geometry" />
        </mxCell>
        <mxCell id="Koj_lWtVOOEXYr1vXT_N-11" value="ApmServerClient.start()" style="shadow=1;fillColor=#77e6cb;strokeColor=none;fontSize=12;" parent="1" vertex="1">
          <mxGeometry x="1058" y="3767" width="170" height="50" as="geometry" />
        </mxCell>
        <mxCell id="Koj_lWtVOOEXYr1vXT_N-12" value="reporter.start()" style="shadow=1;fillColor=#77e6cb;strokeColor=none;fontSize=12;" parent="1" vertex="1">
          <mxGeometry x="1058" y="3857" width="170" height="50" as="geometry" />
        </mxCell>
        <mxCell id="Koj_lWtVOOEXYr1vXT_N-13" value="ExecutorServiceShutdownLifecycleListener.start()&#xa;ClosableLifecycleListenerAdapter.start()&#xa;ApmServerConfigurationSource.start()&#xa;StartupInfo.start()&#xa;MatcherTimerLifecycleListener.start()&#xa;JvmMemoryMetrics.start()&#xa;SystemMetrics.start()&#xa;CGroupMetrics.start()&#xa;JvmGcMetrics.start()&#xa;ThreadMetrics.start()&#xa;CircuitBreaker.start()&#xa;WeakMapCleaner.start()&#xa;MetricRegistryReporter.start()&#xa;JmxMetricTracker.start()&#xa;ProfilingFactory.start()&#xa;LogShipperFactory.start()" style="shadow=1;fillColor=#77e6cb;strokeColor=none;fontSize=12;align=left;spacingTop=5;spacing=5;" parent="1" vertex="1">
          <mxGeometry x="1064" y="3947" width="282" height="271" as="geometry" />
        </mxCell>
        <mxCell id="Koj_lWtVOOEXYr1vXT_N-15" style="edgeStyle=orthogonalEdgeStyle;rounded=0;orthogonalLoop=1;jettySize=auto;html=1;exitX=1;exitY=0.5;exitDx=0;exitDy=0;fontSize=12;entryX=0;entryY=0.5;entryDx=0;entryDy=0;" parent="1" source="Koj_lWtVOOEXYr1vXT_N-7" target="Koj_lWtVOOEXYr1vXT_N-12" edge="1">
          <mxGeometry relative="1" as="geometry">
            <mxPoint x="897" y="3802" as="sourcePoint" />
            <mxPoint x="1068" y="3802" as="targetPoint" />
          </mxGeometry>
        </mxCell>
        <mxCell id="Koj_lWtVOOEXYr1vXT_N-16" style="edgeStyle=orthogonalEdgeStyle;rounded=0;orthogonalLoop=1;jettySize=auto;html=1;exitX=1;exitY=0.5;exitDx=0;exitDy=0;fontSize=12;entryX=0;entryY=0.5;entryDx=0;entryDy=0;" parent="1" source="Koj_lWtVOOEXYr1vXT_N-7" target="Koj_lWtVOOEXYr1vXT_N-13" edge="1">
          <mxGeometry relative="1" as="geometry">
            <mxPoint x="897" y="3802" as="sourcePoint" />
            <mxPoint x="1068" y="3892" as="targetPoint" />
            <Array as="points">
              <mxPoint x="973" y="3792" />
              <mxPoint x="973" y="4083" />
            </Array>
          </mxGeometry>
        </mxCell>
        <mxCell id="Koj_lWtVOOEXYr1vXT_N-17" value="start()" style="text;html=1;align=center;verticalAlign=middle;resizable=0;points=[];autosize=1;fontSize=12;" parent="1" vertex="1">
          <mxGeometry x="915" y="3771" width="41" height="18" as="geometry" />
        </mxCell>
        <mxCell id="Koj_lWtVOOEXYr1vXT_N-23" style="edgeStyle=orthogonalEdgeStyle;rounded=0;orthogonalLoop=1;jettySize=auto;html=1;exitX=1;exitY=0.5;exitDx=0;exitDy=0;fontSize=12;" parent="1" source="Koj_lWtVOOEXYr1vXT_N-18" target="Koj_lWtVOOEXYr1vXT_N-19" edge="1">
          <mxGeometry relative="1" as="geometry" />
        </mxCell>
        <mxCell id="Koj_lWtVOOEXYr1vXT_N-18" value="启动" style="shadow=1;fillColor=#77e6cb;strokeColor=none;fontSize=12;" parent="1" vertex="1">
          <mxGeometry x="83" y="4579" width="170" height="50" as="geometry" />
        </mxCell>
        <mxCell id="Koj_lWtVOOEXYr1vXT_N-24" style="edgeStyle=orthogonalEdgeStyle;rounded=0;orthogonalLoop=1;jettySize=auto;html=1;exitX=1;exitY=0.5;exitDx=0;exitDy=0;fontSize=12;" parent="1" source="Koj_lWtVOOEXYr1vXT_N-19" target="Koj_lWtVOOEXYr1vXT_N-20" edge="1">
          <mxGeometry relative="1" as="geometry" />
        </mxCell>
        <mxCell id="Koj_lWtVOOEXYr1vXT_N-19" value="加载配置" style="shadow=1;fillColor=#77e6cb;strokeColor=none;fontSize=12;" parent="1" vertex="1">
          <mxGeometry x="343" y="4579" width="170" height="50" as="geometry" />
        </mxCell>
        <mxCell id="Koj_lWtVOOEXYr1vXT_N-25" style="edgeStyle=orthogonalEdgeStyle;rounded=0;orthogonalLoop=1;jettySize=auto;html=1;exitX=1;exitY=0.5;exitDx=0;exitDy=0;fontSize=12;" parent="1" source="Koj_lWtVOOEXYr1vXT_N-20" target="Koj_lWtVOOEXYr1vXT_N-21" edge="1">
          <mxGeometry relative="1" as="geometry" />
        </mxCell>
        <mxCell id="Koj_lWtVOOEXYr1vXT_N-20" value="加载Jar" style="shadow=1;fillColor=#77e6cb;strokeColor=none;fontSize=12;" parent="1" vertex="1">
          <mxGeometry x="603" y="4579" width="170" height="50" as="geometry" />
        </mxCell>
        <mxCell id="Koj_lWtVOOEXYr1vXT_N-26" style="edgeStyle=orthogonalEdgeStyle;rounded=0;orthogonalLoop=1;jettySize=auto;html=1;exitX=1;exitY=0.5;exitDx=0;exitDy=0;fontSize=12;" parent="1" source="Koj_lWtVOOEXYr1vXT_N-21" target="Koj_lWtVOOEXYr1vXT_N-22" edge="1">
          <mxGeometry relative="1" as="geometry" />
        </mxCell>
        <mxCell id="Koj_lWtVOOEXYr1vXT_N-21" value="解析插件配置" style="shadow=1;fillColor=#77e6cb;strokeColor=none;fontSize=12;" parent="1" vertex="1">
          <mxGeometry x="863" y="4579" width="170" height="50" as="geometry" />
        </mxCell>
        <mxCell id="Koj_lWtVOOEXYr1vXT_N-41" style="edgeStyle=orthogonalEdgeStyle;rounded=0;orthogonalLoop=1;jettySize=auto;html=1;exitX=1;exitY=0.5;exitDx=0;exitDy=0;fontSize=12;" parent="1" source="Koj_lWtVOOEXYr1vXT_N-22" target="Koj_lWtVOOEXYr1vXT_N-38" edge="1">
          <mxGeometry relative="1" as="geometry" />
        </mxCell>
        <mxCell id="Koj_lWtVOOEXYr1vXT_N-22" value="加载插件" style="shadow=1;fillColor=#77e6cb;strokeColor=none;fontSize=12;" parent="1" vertex="1">
          <mxGeometry x="1123" y="4579" width="170" height="50" as="geometry" />
        </mxCell>
        <mxCell id="Koj_lWtVOOEXYr1vXT_N-27" value="启动时注入(PreMain)" style="shadow=1;strokeColor=none;fontSize=12;fillColor=#CCFFFF;" parent="1" vertex="1">
          <mxGeometry x="83" y="4684" width="170" height="50" as="geometry" />
        </mxCell>
        <mxCell id="Koj_lWtVOOEXYr1vXT_N-28" value="运行态注入(AgentMain)" style="shadow=1;strokeColor=none;fontSize=12;fillColor=#CCFFFF;" parent="1" vertex="1">
          <mxGeometry x="83" y="4771" width="170" height="50" as="geometry" />
        </mxCell>
        <mxCell id="Koj_lWtVOOEXYr1vXT_N-29" value="本地config文件" style="shadow=1;strokeColor=none;fontSize=12;fillColor=#CCFFFF;" parent="1" vertex="1">
          <mxGeometry x="343" y="4684" width="170" height="50" as="geometry" />
        </mxCell>
        <mxCell id="Koj_lWtVOOEXYr1vXT_N-30" value="启动参数" style="shadow=1;strokeColor=none;fontSize=12;fillColor=#CCFFFF;" parent="1" vertex="1">
          <mxGeometry x="343" y="4771" width="170" height="50" as="geometry" />
        </mxCell>
        <mxCell id="Koj_lWtVOOEXYr1vXT_N-57" style="edgeStyle=orthogonalEdgeStyle;rounded=0;orthogonalLoop=1;jettySize=auto;html=1;exitX=0.5;exitY=1;exitDx=0;exitDy=0;fontSize=12;entryX=0.5;entryY=1;entryDx=0;entryDy=0;dashed=1;endArrow=none;endFill=0;strokeColor=#808080;" parent="1" source="Koj_lWtVOOEXYr1vXT_N-31" target="Koj_lWtVOOEXYr1vXT_N-45" edge="1">
          <mxGeometry relative="1" as="geometry">
            <mxPoint x="1776.8888888888887" y="4914.777777777777" as="targetPoint" />
            <Array as="points">
              <mxPoint x="428" y="4954" />
              <mxPoint x="1728" y="4954" />
            </Array>
          </mxGeometry>
        </mxCell>
        <mxCell id="Koj_lWtVOOEXYr1vXT_N-31" value="服务端配置" style="shadow=1;strokeColor=none;fontSize=12;fillColor=#CCFFFF;" parent="1" vertex="1">
          <mxGeometry x="343" y="4858" width="170" height="50" as="geometry" />
        </mxCell>
        <mxCell id="Koj_lWtVOOEXYr1vXT_N-32" value="Agent自身Jar" style="shadow=1;strokeColor=none;fontSize=12;fillColor=#CCFFFF;" parent="1" vertex="1">
          <mxGeometry x="603" y="4684" width="170" height="50" as="geometry" />
        </mxCell>
        <mxCell id="Koj_lWtVOOEXYr1vXT_N-33" value="依赖的Jar" style="shadow=1;strokeColor=none;fontSize=12;fillColor=#CCFFFF;" parent="1" vertex="1">
          <mxGeometry x="603" y="4771" width="170" height="50" as="geometry" />
        </mxCell>
        <mxCell id="Koj_lWtVOOEXYr1vXT_N-34" value="插件Jar" style="shadow=1;strokeColor=none;fontSize=12;fillColor=#CCFFFF;" parent="1" vertex="1">
          <mxGeometry x="603" y="4858" width="170" height="50" as="geometry" />
        </mxCell>
        <mxCell id="Koj_lWtVOOEXYr1vXT_N-35" value="获取目标类" style="shadow=1;strokeColor=none;fontSize=12;fillColor=#CCFFFF;" parent="1" vertex="1">
          <mxGeometry x="863" y="4684" width="170" height="50" as="geometry" />
        </mxCell>
        <mxCell id="Koj_lWtVOOEXYr1vXT_N-47" style="edgeStyle=orthogonalEdgeStyle;rounded=0;orthogonalLoop=1;jettySize=auto;html=1;exitX=1;exitY=0.5;exitDx=0;exitDy=0;fontSize=12;" parent="1" source="Koj_lWtVOOEXYr1vXT_N-38" target="Koj_lWtVOOEXYr1vXT_N-42" edge="1">
          <mxGeometry relative="1" as="geometry" />
        </mxCell>
        <mxCell id="Koj_lWtVOOEXYr1vXT_N-38" value="字节码增强" style="shadow=1;fillColor=#77e6cb;strokeColor=none;fontSize=12;" parent="1" vertex="1">
          <mxGeometry x="1383" y="4579" width="170" height="50" as="geometry" />
        </mxCell>
        <mxCell id="Koj_lWtVOOEXYr1vXT_N-39" value="自定义ClassLoader" style="shadow=1;strokeColor=none;fontSize=12;fillColor=#CCFFFF;" parent="1" vertex="1">
          <mxGeometry x="1123" y="4684" width="170" height="50" as="geometry" />
        </mxCell>
        <mxCell id="Koj_lWtVOOEXYr1vXT_N-40" value="解决Class的可见性&#xa;且不影响应用类加载" style="shadow=1;strokeColor=none;fontSize=12;fillColor=#CCFFFF;" parent="1" vertex="1">
          <mxGeometry x="1123" y="4771" width="170" height="50" as="geometry" />
        </mxCell>
        <mxCell id="Koj_lWtVOOEXYr1vXT_N-48" style="edgeStyle=orthogonalEdgeStyle;rounded=0;orthogonalLoop=1;jettySize=auto;html=1;exitX=1;exitY=0.5;exitDx=0;exitDy=0;fontSize=12;" parent="1" source="Koj_lWtVOOEXYr1vXT_N-42" target="Koj_lWtVOOEXYr1vXT_N-46" edge="1">
          <mxGeometry relative="1" as="geometry" />
        </mxCell>
        <mxCell id="Koj_lWtVOOEXYr1vXT_N-42" value="启动后台任务" style="shadow=1;fillColor=#77e6cb;strokeColor=none;fontSize=12;" parent="1" vertex="1">
          <mxGeometry x="1643" y="4579" width="170" height="50" as="geometry" />
        </mxCell>
        <mxCell id="Koj_lWtVOOEXYr1vXT_N-44" value="数据采集发送" style="shadow=1;strokeColor=none;fontSize=12;fillColor=#CCFFFF;" parent="1" vertex="1">
          <mxGeometry x="1643" y="4684" width="170" height="50" as="geometry" />
        </mxCell>
        <mxCell id="Koj_lWtVOOEXYr1vXT_N-45" value="心跳" style="shadow=1;strokeColor=none;fontSize=12;fillColor=#CCFFFF;" parent="1" vertex="1">
          <mxGeometry x="1643" y="4771" width="170" height="50" as="geometry" />
        </mxCell>
        <mxCell id="Koj_lWtVOOEXYr1vXT_N-46" value="注册JVM关闭hook" style="shadow=1;fillColor=#77e6cb;strokeColor=none;fontSize=12;" parent="1" vertex="1">
          <mxGeometry x="1903" y="4579" width="170" height="50" as="geometry" />
        </mxCell>
        <mxCell id="Koj_lWtVOOEXYr1vXT_N-50" value="&lt;span style=&quot;font-size: 18px&quot;&gt;Agent&lt;/span&gt;" style="text;html=1;strokeColor=none;fillColor=none;align=center;verticalAlign=middle;whiteSpace=wrap;rounded=0;fontStyle=1" parent="1" vertex="1">
          <mxGeometry x="90" y="4503" width="101" height="20" as="geometry" />
        </mxCell>
        <mxCell id="Koj_lWtVOOEXYr1vXT_N-51" value="&lt;font style=&quot;font-size: 18px&quot;&gt;技术要点&lt;/font&gt;" style="text;html=1;strokeColor=none;fillColor=none;align=center;verticalAlign=middle;whiteSpace=wrap;rounded=0;fontStyle=1" parent="1" vertex="1">
          <mxGeometry x="558" y="4392" width="126" height="20" as="geometry" />
        </mxCell>
        <mxCell id="Koj_lWtVOOEXYr1vXT_N-52" value="&lt;div style=&quot;text-align: left&quot;&gt;&lt;span style=&quot;font-size: 18px ; font-weight: normal&quot;&gt;ClassLoader&lt;/span&gt;&lt;/div&gt;&lt;font style=&quot;font-size: 18px ; font-weight: normal&quot;&gt;&lt;div style=&quot;text-align: left&quot;&gt;&lt;span&gt;&amp;nbsp; 双亲委派&lt;/span&gt;&lt;/div&gt;&lt;div style=&quot;text-align: left&quot;&gt;&lt;span&gt;&amp;nbsp; 类的唯一性、可见性&lt;/span&gt;&lt;/div&gt;&lt;div style=&quot;text-align: left&quot;&gt;&lt;span&gt;&amp;nbsp; 不影响应用的类加载&lt;/span&gt;&lt;/div&gt;&lt;/font&gt;" style="text;html=1;strokeColor=none;fillColor=none;align=center;verticalAlign=middle;whiteSpace=wrap;rounded=0;fontStyle=1" parent="1" vertex="1">
          <mxGeometry x="578" y="4423" width="191" height="84" as="geometry" />
        </mxCell>
        <mxCell id="Koj_lWtVOOEXYr1vXT_N-55" value="&lt;div&gt;&lt;br&gt;&lt;/div&gt;&lt;font&gt;&lt;div style=&quot;font-size: 18px ; font-weight: normal&quot;&gt;&lt;span&gt;&amp;nbsp; 插件加载&lt;/span&gt;&lt;/div&gt;&lt;div style=&quot;font-size: 18px ; font-weight: normal&quot;&gt;&lt;span&gt;&amp;nbsp;&amp;nbsp;&lt;/span&gt;&lt;span&gt;插件的规范(实现特定接口来匹配类、方法、插入方法执行前后逻辑)&lt;/span&gt;&lt;/div&gt;&lt;div style=&quot;font-size: 18px ; font-weight: normal&quot;&gt;&lt;span&gt;&amp;nbsp; 插件的独立性&lt;/span&gt;&lt;/div&gt;&lt;div style=&quot;font-size: 18px ; font-weight: normal&quot;&gt;&lt;span&gt;&amp;nbsp; 插件之间的数据传递（消息头、异步调用ThreadLocal）&lt;/span&gt;&lt;/div&gt;&lt;/font&gt;" style="text;html=1;strokeColor=none;fillColor=none;align=left;verticalAlign=middle;whiteSpace=wrap;rounded=0;fontStyle=1" parent="1" vertex="1">
          <mxGeometry x="827" y="4423" width="619" height="100" as="geometry" />
        </mxCell>
        <mxCell id="Koj_lWtVOOEXYr1vXT_N-56" value="关闭后台任务" style="shadow=1;strokeColor=none;fontSize=12;fillColor=#CCFFFF;" parent="1" vertex="1">
          <mxGeometry x="1903" y="4684" width="170" height="50" as="geometry" />
        </mxCell>
        <mxCell id="Koj_lWtVOOEXYr1vXT_N-60" value="ByteBuddy 字节增强" style="shadow=1;strokeColor=none;fontSize=12;fillColor=#CCFFFF;" parent="1" vertex="1">
          <mxGeometry x="1383" y="4684" width="170" height="50" as="geometry" />
        </mxCell>
        <mxCell id="Koj_lWtVOOEXYr1vXT_N-61" value="ByteBuddy 字节码恢复" style="shadow=1;strokeColor=none;fontSize=12;fillColor=#CCFFFF;" parent="1" vertex="1">
          <mxGeometry x="1383" y="4771" width="170" height="50" as="geometry" />
        </mxCell>
        <mxCell id="Koj_lWtVOOEXYr1vXT_N-62" value="&lt;font style=&quot;font-size: 18px&quot;&gt;配置、&lt;/font&gt;&lt;span style=&quot;font-size: 18px&quot;&gt;心跳&lt;/span&gt;" style="text;html=1;strokeColor=none;fillColor=none;align=center;verticalAlign=middle;whiteSpace=wrap;rounded=0;fontStyle=1" parent="1" vertex="1">
          <mxGeometry x="69" y="4966" width="175" height="20" as="geometry" />
        </mxCell>
        <mxCell id="Koj_lWtVOOEXYr1vXT_N-63" value="ByteBuddy Adivce" style="shadow=1;strokeColor=none;fontSize=12;fillColor=#CCFFFF;" parent="1" vertex="1">
          <mxGeometry x="1383" y="4858" width="170" height="50" as="geometry" />
        </mxCell>
        <mxCell id="Koj_lWtVOOEXYr1vXT_N-67" style="edgeStyle=none;rounded=0;orthogonalLoop=1;jettySize=auto;html=1;exitX=1;exitY=0.5;exitDx=0;exitDy=0;endArrow=none;endFill=0;strokeColor=#808080;fontSize=12;" parent="1" source="Koj_lWtVOOEXYr1vXT_N-64" target="Koj_lWtVOOEXYr1vXT_N-65" edge="1">
          <mxGeometry relative="1" as="geometry" />
        </mxCell>
        <mxCell id="Koj_lWtVOOEXYr1vXT_N-68" value="Netty TCP" style="edgeLabel;html=1;align=center;verticalAlign=middle;resizable=0;points=[];fontSize=12;" parent="Koj_lWtVOOEXYr1vXT_N-67" vertex="1" connectable="0">
          <mxGeometry x="-0.3679" relative="1" as="geometry">
            <mxPoint x="37.11" y="-8.75" as="offset" />
          </mxGeometry>
        </mxCell>
        <mxCell id="Koj_lWtVOOEXYr1vXT_N-94" style="edgeStyle=orthogonalEdgeStyle;rounded=0;orthogonalLoop=1;jettySize=auto;html=1;exitX=0.5;exitY=1;exitDx=0;exitDy=0;entryX=0.5;entryY=1;entryDx=0;entryDy=0;startArrow=none;startFill=0;endArrow=classic;endFill=1;strokeColor=#808080;fontSize=12;curved=1;dashed=1;" parent="1" source="Koj_lWtVOOEXYr1vXT_N-64" target="Koj_lWtVOOEXYr1vXT_N-66" edge="1">
          <mxGeometry relative="1" as="geometry">
            <Array as="points">
              <mxPoint x="1419.25" y="5109" />
              <mxPoint x="2251.25" y="5109" />
            </Array>
          </mxGeometry>
        </mxCell>
        <mxCell id="Koj_lWtVOOEXYr1vXT_N-95" value="???" style="edgeLabel;html=1;align=center;verticalAlign=middle;resizable=0;points=[];fontSize=12;" parent="Koj_lWtVOOEXYr1vXT_N-94" vertex="1" connectable="0">
          <mxGeometry x="0.0559" y="-4" relative="1" as="geometry">
            <mxPoint as="offset" />
          </mxGeometry>
        </mxCell>
        <mxCell id="Koj_lWtVOOEXYr1vXT_N-64" value="Agent" style="shadow=1;fillColor=#77e6cb;strokeColor=none;fontSize=12;" parent="1" vertex="1">
          <mxGeometry x="1334.25" y="5015" width="170" height="50" as="geometry" />
        </mxCell>
        <mxCell id="Koj_lWtVOOEXYr1vXT_N-70" style="edgeStyle=none;rounded=0;orthogonalLoop=1;jettySize=auto;html=1;exitX=1;exitY=0.5;exitDx=0;exitDy=0;startArrow=none;startFill=0;endArrow=none;endFill=0;strokeColor=#808080;fontSize=12;" parent="1" source="Koj_lWtVOOEXYr1vXT_N-65" target="Koj_lWtVOOEXYr1vXT_N-66" edge="1">
          <mxGeometry relative="1" as="geometry" />
        </mxCell>
        <mxCell id="Koj_lWtVOOEXYr1vXT_N-65" value="Collector" style="shadow=1;fillColor=#77e6cb;strokeColor=none;fontSize=12;" parent="1" vertex="1">
          <mxGeometry x="1815.75" y="5015" width="170" height="50" as="geometry" />
        </mxCell>
        <mxCell id="Koj_lWtVOOEXYr1vXT_N-66" value="Console 管理台 ?" style="shadow=1;fillColor=#77e6cb;strokeColor=none;fontSize=12;" parent="1" vertex="1">
          <mxGeometry x="2166.25" y="5013" width="170" height="50" as="geometry" />
        </mxCell>
        <mxCell id="Koj_lWtVOOEXYr1vXT_N-73" style="edgeStyle=none;rounded=0;orthogonalLoop=1;jettySize=auto;html=1;exitX=0.5;exitY=1;exitDx=0;exitDy=0;startArrow=none;startFill=0;endArrow=none;endFill=0;strokeColor=#808080;fontSize=12;" parent="1" source="Koj_lWtVOOEXYr1vXT_N-104" edge="1">
          <mxGeometry relative="1" as="geometry">
            <mxPoint x="167.1111111111111" y="5688.222222222223" as="targetPoint" />
          </mxGeometry>
        </mxCell>
        <mxCell id="Koj_lWtVOOEXYr1vXT_N-71" value="Agent" style="shadow=1;fillColor=#77e6cb;strokeColor=none;fontSize=12;" parent="1" vertex="1">
          <mxGeometry x="82" y="5027" width="170" height="50" as="geometry" />
        </mxCell>
        <mxCell id="Koj_lWtVOOEXYr1vXT_N-72" value="Collector" style="shadow=1;fillColor=#77e6cb;strokeColor=none;fontSize=12;" parent="1" vertex="1">
          <mxGeometry x="571" y="5027" width="170" height="50" as="geometry" />
        </mxCell>
        <mxCell id="Koj_lWtVOOEXYr1vXT_N-74" value="Console" style="shadow=1;fillColor=#77e6cb;strokeColor=none;fontSize=12;" parent="1" vertex="1">
          <mxGeometry x="917" y="5027" width="170" height="50" as="geometry" />
        </mxCell>
        <mxCell id="Koj_lWtVOOEXYr1vXT_N-75" style="edgeStyle=none;rounded=0;orthogonalLoop=1;jettySize=auto;html=1;exitX=0.5;exitY=1;exitDx=0;exitDy=0;startArrow=none;startFill=0;endArrow=none;endFill=0;strokeColor=#808080;fontSize=12;" parent="1" source="Koj_lWtVOOEXYr1vXT_N-109" edge="1">
          <mxGeometry relative="1" as="geometry">
            <mxPoint x="668.0511111111111" y="5688.222222222223" as="targetPoint" />
            <mxPoint x="667.94" y="5093" as="sourcePoint" />
          </mxGeometry>
        </mxCell>
        <mxCell id="Koj_lWtVOOEXYr1vXT_N-80" value="" style="edgeStyle=none;rounded=0;orthogonalLoop=1;jettySize=auto;html=1;startArrow=none;startFill=0;endArrow=classic;endFill=1;strokeColor=#808080;fontSize=12;" parent="1" source="Koj_lWtVOOEXYr1vXT_N-78" target="Koj_lWtVOOEXYr1vXT_N-79" edge="1">
          <mxGeometry relative="1" as="geometry" />
        </mxCell>
        <mxCell id="Koj_lWtVOOEXYr1vXT_N-88" value="" style="edgeStyle=none;rounded=0;orthogonalLoop=1;jettySize=auto;html=1;startArrow=none;startFill=0;endArrow=classic;endFill=1;strokeColor=#808080;fontSize=12;" parent="1" source="Koj_lWtVOOEXYr1vXT_N-79" target="Koj_lWtVOOEXYr1vXT_N-87" edge="1">
          <mxGeometry relative="1" as="geometry" />
        </mxCell>
        <mxCell id="Koj_lWtVOOEXYr1vXT_N-79" value="" style="html=1;points=[];perimeter=orthogonalPerimeter;fillColor=#77e6cb4d;" parent="1" vertex="1">
          <mxGeometry x="663.5" y="5125" width="10" height="114" as="geometry" />
        </mxCell>
        <mxCell id="Koj_lWtVOOEXYr1vXT_N-82" style="edgeStyle=none;rounded=0;orthogonalLoop=1;jettySize=auto;html=1;exitX=0.5;exitY=1;exitDx=0;exitDy=0;startArrow=none;startFill=0;endArrow=none;endFill=0;strokeColor=#808080;fontSize=12;" parent="1" target="Koj_lWtVOOEXYr1vXT_N-79" edge="1">
          <mxGeometry relative="1" as="geometry">
            <mxPoint x="668.0511111111109" y="5672.222222222223" as="targetPoint" />
            <mxPoint x="667.94" y="5077" as="sourcePoint" />
          </mxGeometry>
        </mxCell>
        <mxCell id="Koj_lWtVOOEXYr1vXT_N-78" value="" style="html=1;points=[];perimeter=orthogonalPerimeter;fillColor=#77e6cb4d;" parent="1" vertex="1">
          <mxGeometry x="162" y="5125" width="10" height="120" as="geometry" />
        </mxCell>
        <mxCell id="Koj_lWtVOOEXYr1vXT_N-83" style="edgeStyle=none;rounded=0;orthogonalLoop=1;jettySize=auto;html=1;exitX=0.5;exitY=1;exitDx=0;exitDy=0;startArrow=none;startFill=0;endArrow=none;endFill=0;strokeColor=#808080;fontSize=12;" parent="1" source="Koj_lWtVOOEXYr1vXT_N-71" target="Koj_lWtVOOEXYr1vXT_N-78" edge="1">
          <mxGeometry relative="1" as="geometry">
            <mxPoint x="167.1111111111111" y="5672.222222222223" as="targetPoint" />
            <mxPoint x="167" y="5077" as="sourcePoint" />
          </mxGeometry>
        </mxCell>
        <mxCell id="Koj_lWtVOOEXYr1vXT_N-84" value="启动" style="text;html=1;align=center;verticalAlign=middle;resizable=0;points=[];autosize=1;fontSize=12;" parent="1" vertex="1">
          <mxGeometry x="130" y="5120" width="34" height="18" as="geometry" />
        </mxCell>
        <mxCell id="Koj_lWtVOOEXYr1vXT_N-85" value="上报启动参数、ip，拉配置" style="text;html=1;align=center;verticalAlign=middle;resizable=0;points=[];autosize=1;fontSize=12;" parent="1" vertex="1">
          <mxGeometry x="269" y="5153" width="151" height="18" as="geometry" />
        </mxCell>
        <mxCell id="Koj_lWtVOOEXYr1vXT_N-86" style="edgeStyle=none;rounded=0;orthogonalLoop=1;jettySize=auto;html=1;exitX=0.5;exitY=1;exitDx=0;exitDy=0;startArrow=none;startFill=0;endArrow=none;endFill=0;strokeColor=#808080;fontSize=12;" parent="1" source="Koj_lWtVOOEXYr1vXT_N-106" edge="1">
          <mxGeometry relative="1" as="geometry">
            <mxPoint x="1007" y="5702" as="targetPoint" />
            <mxPoint x="1007" y="5093" as="sourcePoint" />
          </mxGeometry>
        </mxCell>
        <mxCell id="Koj_lWtVOOEXYr1vXT_N-87" value="" style="html=1;points=[];perimeter=orthogonalPerimeter;fillColor=#77e6cb4d;" parent="1" vertex="1">
          <mxGeometry x="1002" y="5153" width="10" height="88" as="geometry" />
        </mxCell>
        <mxCell id="Koj_lWtVOOEXYr1vXT_N-89" style="edgeStyle=none;rounded=0;orthogonalLoop=1;jettySize=auto;html=1;exitX=0.5;exitY=1;exitDx=0;exitDy=0;startArrow=none;startFill=0;endArrow=none;endFill=0;strokeColor=#808080;fontSize=12;" parent="1" target="Koj_lWtVOOEXYr1vXT_N-87" edge="1">
          <mxGeometry relative="1" as="geometry">
            <mxPoint x="1007" y="5686" as="targetPoint" />
            <mxPoint x="1007" y="5077" as="sourcePoint" />
          </mxGeometry>
        </mxCell>
        <mxCell id="Koj_lWtVOOEXYr1vXT_N-90" value="" style="edgeStyle=none;rounded=0;orthogonalLoop=1;jettySize=auto;html=1;startArrow=none;startFill=0;endArrow=classic;endFill=1;strokeColor=#808080;fontSize=12;" parent="1" edge="1">
          <mxGeometry relative="1" as="geometry">
            <mxPoint x="996.5" y="5216" as="sourcePoint" />
            <mxPoint x="673.5" y="5216" as="targetPoint" />
          </mxGeometry>
        </mxCell>
        <mxCell id="Koj_lWtVOOEXYr1vXT_N-91" value="" style="edgeStyle=none;rounded=0;orthogonalLoop=1;jettySize=auto;html=1;startArrow=none;startFill=0;endArrow=classic;endFill=1;strokeColor=#808080;fontSize=12;" parent="1" edge="1">
          <mxGeometry relative="1" as="geometry">
            <mxPoint x="660" y="5220" as="sourcePoint" />
            <mxPoint x="176" y="5220" as="targetPoint" />
          </mxGeometry>
        </mxCell>
        <mxCell id="Koj_lWtVOOEXYr1vXT_N-92" value="匹配" style="text;html=1;align=center;verticalAlign=middle;resizable=0;points=[];autosize=1;fontSize=12;" parent="1" vertex="1">
          <mxGeometry x="784" y="5157" width="34" height="18" as="geometry" />
        </mxCell>
        <mxCell id="Koj_lWtVOOEXYr1vXT_N-93" value="返回 子系统id、name、idc、dcn、agentid&lt;br&gt;&lt;div style=&quot;text-align: left&quot;&gt;&lt;span&gt;&lt;font color=&quot;#ea6b66&quot;&gt;Collector IP？&lt;/font&gt;&lt;/span&gt;&lt;/div&gt;" style="text;html=1;align=center;verticalAlign=middle;resizable=0;points=[];autosize=1;fontSize=12;" parent="1" vertex="1">
          <mxGeometry x="712" y="5220" width="235" height="32" as="geometry" />
        </mxCell>
        <mxCell id="Koj_lWtVOOEXYr1vXT_N-100" value="" style="edgeStyle=orthogonalEdgeStyle;curved=1;rounded=0;orthogonalLoop=1;jettySize=auto;html=1;dashed=1;startArrow=classic;startFill=1;endArrow=classic;endFill=1;strokeColor=#808080;fontSize=12;" parent="1" source="Koj_lWtVOOEXYr1vXT_N-96" target="Koj_lWtVOOEXYr1vXT_N-99" edge="1">
          <mxGeometry relative="1" as="geometry" />
        </mxCell>
        <mxCell id="Koj_lWtVOOEXYr1vXT_N-96" value="" style="html=1;points=[];perimeter=orthogonalPerimeter;fillColor=#77e6cb4d;" parent="1" vertex="1">
          <mxGeometry x="162" y="5284" width="10" height="120" as="geometry" />
        </mxCell>
        <mxCell id="Koj_lWtVOOEXYr1vXT_N-97" style="edgeStyle=none;rounded=0;orthogonalLoop=1;jettySize=auto;html=1;exitX=0.5;exitY=1;exitDx=0;exitDy=0;startArrow=none;startFill=0;endArrow=none;endFill=0;strokeColor=#808080;fontSize=12;" parent="1" source="Koj_lWtVOOEXYr1vXT_N-78" target="Koj_lWtVOOEXYr1vXT_N-96" edge="1">
          <mxGeometry relative="1" as="geometry">
            <mxPoint x="167.1111111111113" y="5672.222222222223" as="targetPoint" />
            <mxPoint x="167" y="5245" as="sourcePoint" />
          </mxGeometry>
        </mxCell>
        <mxCell id="Koj_lWtVOOEXYr1vXT_N-98" value="心跳" style="text;html=1;align=center;verticalAlign=middle;resizable=0;points=[];autosize=1;fontSize=12;" parent="1" vertex="1">
          <mxGeometry x="118.5" y="5285" width="34" height="18" as="geometry" />
        </mxCell>
        <mxCell id="Koj_lWtVOOEXYr1vXT_N-99" value="" style="html=1;points=[];perimeter=orthogonalPerimeter;fillColor=#77e6cb4d;" parent="1" vertex="1">
          <mxGeometry x="663.5" y="5284" width="10" height="120" as="geometry" />
        </mxCell>
        <mxCell id="Koj_lWtVOOEXYr1vXT_N-101" style="edgeStyle=none;rounded=0;orthogonalLoop=1;jettySize=auto;html=1;exitX=0.5;exitY=1;exitDx=0;exitDy=0;startArrow=none;startFill=0;endArrow=none;endFill=0;strokeColor=#808080;fontSize=12;" parent="1" source="Koj_lWtVOOEXYr1vXT_N-79" target="Koj_lWtVOOEXYr1vXT_N-99" edge="1">
          <mxGeometry relative="1" as="geometry">
            <mxPoint x="668.0511111111109" y="5672.222222222223" as="targetPoint" />
            <mxPoint x="668.5000000000005" y="5239" as="sourcePoint" />
          </mxGeometry>
        </mxCell>
        <mxCell id="Koj_lWtVOOEXYr1vXT_N-111" style="edgeStyle=none;rounded=0;orthogonalLoop=1;jettySize=auto;html=1;exitX=0;exitY=0.3333333333333333;exitDx=0;exitDy=0;exitPerimeter=0;startArrow=none;startFill=0;endArrow=classic;endFill=1;strokeColor=#808080;fontSize=12;" parent="1" source="Koj_lWtVOOEXYr1vXT_N-102" target="Koj_lWtVOOEXYr1vXT_N-106" edge="1">
          <mxGeometry relative="1" as="geometry" />
        </mxCell>
        <mxCell id="Koj_lWtVOOEXYr1vXT_N-102" value="Actor" style="shape=umlActor;verticalLabelPosition=bottom;verticalAlign=top;html=1;outlineConnect=0;fillColor=#77e6cb4d;" parent="1" vertex="1">
          <mxGeometry x="1111" y="5455" width="30" height="60" as="geometry" />
        </mxCell>
        <mxCell id="Koj_lWtVOOEXYr1vXT_N-104" value="" style="html=1;points=[];perimeter=orthogonalPerimeter;fillColor=#77e6cb4d;" parent="1" vertex="1">
          <mxGeometry x="162" y="5444" width="10" height="120" as="geometry" />
        </mxCell>
        <mxCell id="Koj_lWtVOOEXYr1vXT_N-105" style="edgeStyle=none;rounded=0;orthogonalLoop=1;jettySize=auto;html=1;exitX=0.5;exitY=1;exitDx=0;exitDy=0;startArrow=none;startFill=0;endArrow=none;endFill=0;strokeColor=#808080;fontSize=12;" parent="1" source="Koj_lWtVOOEXYr1vXT_N-96" target="Koj_lWtVOOEXYr1vXT_N-104" edge="1">
          <mxGeometry relative="1" as="geometry">
            <mxPoint x="167.1111111111111" y="5672.222222222223" as="targetPoint" />
            <mxPoint x="167" y="5422" as="sourcePoint" />
          </mxGeometry>
        </mxCell>
        <mxCell id="Koj_lWtVOOEXYr1vXT_N-106" value="" style="html=1;points=[];perimeter=orthogonalPerimeter;fillColor=#77e6cb4d;" parent="1" vertex="1">
          <mxGeometry x="1002" y="5438" width="10" height="120" as="geometry" />
        </mxCell>
        <mxCell id="Koj_lWtVOOEXYr1vXT_N-108" style="edgeStyle=none;rounded=0;orthogonalLoop=1;jettySize=auto;html=1;exitX=0.5;exitY=1;exitDx=0;exitDy=0;startArrow=none;startFill=0;endArrow=none;endFill=0;strokeColor=#808080;fontSize=12;" parent="1" source="Koj_lWtVOOEXYr1vXT_N-87" target="Koj_lWtVOOEXYr1vXT_N-106" edge="1">
          <mxGeometry relative="1" as="geometry">
            <mxPoint x="1007.0000000000005" y="5686" as="targetPoint" />
            <mxPoint x="1007.0000000000005" y="5241" as="sourcePoint" />
          </mxGeometry>
        </mxCell>
        <mxCell id="Koj_lWtVOOEXYr1vXT_N-109" value="" style="html=1;points=[];perimeter=orthogonalPerimeter;fillColor=#77e6cb4d;" parent="1" vertex="1">
          <mxGeometry x="663.5" y="5444" width="10" height="120" as="geometry" />
        </mxCell>
        <mxCell id="Koj_lWtVOOEXYr1vXT_N-110" style="edgeStyle=none;rounded=0;orthogonalLoop=1;jettySize=auto;html=1;exitX=0.5;exitY=1;exitDx=0;exitDy=0;startArrow=none;startFill=0;endArrow=none;endFill=0;strokeColor=#808080;fontSize=12;" parent="1" source="Koj_lWtVOOEXYr1vXT_N-99" target="Koj_lWtVOOEXYr1vXT_N-109" edge="1">
          <mxGeometry relative="1" as="geometry">
            <mxPoint x="668.0511111111109" y="5672.222222222223" as="targetPoint" />
            <mxPoint x="668.5" y="5422" as="sourcePoint" />
          </mxGeometry>
        </mxCell>
        <mxCell id="Koj_lWtVOOEXYr1vXT_N-112" style="edgeStyle=none;rounded=0;orthogonalLoop=1;jettySize=auto;html=1;exitX=0;exitY=0.3333333333333333;exitDx=0;exitDy=0;exitPerimeter=0;startArrow=none;startFill=0;endArrow=classic;endFill=1;strokeColor=#808080;fontSize=12;entryX=1.439;entryY=0.491;entryDx=0;entryDy=0;entryPerimeter=0;" parent="1" target="Koj_lWtVOOEXYr1vXT_N-109" edge="1">
          <mxGeometry relative="1" as="geometry">
            <mxPoint x="1004" y="5503.44" as="sourcePoint" />
            <mxPoint x="905.0000000000005" y="5503.44" as="targetPoint" />
          </mxGeometry>
        </mxCell>
        <mxCell id="Koj_lWtVOOEXYr1vXT_N-114" style="edgeStyle=none;rounded=0;orthogonalLoop=1;jettySize=auto;html=1;exitX=0;exitY=0.3333333333333333;exitDx=0;exitDy=0;exitPerimeter=0;startArrow=none;startFill=0;endArrow=classic;endFill=1;strokeColor=#808080;fontSize=12;" parent="1" edge="1">
          <mxGeometry relative="1" as="geometry">
            <mxPoint x="661.11" y="5503.96" as="sourcePoint" />
            <mxPoint x="173" y="5503" as="targetPoint" />
          </mxGeometry>
        </mxCell>
        <mxCell id="Koj_lWtVOOEXYr1vXT_N-115" value="启停操作" style="text;html=1;align=center;verticalAlign=middle;resizable=0;points=[];autosize=1;fontSize=12;" parent="1" vertex="1">
          <mxGeometry x="1041" y="5433" width="58" height="18" as="geometry" />
        </mxCell>
        <mxCell id="Koj_lWtVOOEXYr1vXT_N-117" value="完全保留原有Pinpoint的心跳数据？" style="text;html=1;align=center;verticalAlign=middle;resizable=0;points=[];autosize=1;fontSize=12;" parent="1" vertex="1">
          <mxGeometry x="189" y="5303" width="197" height="18" as="geometry" />
        </mxCell>
        <mxCell id="Koj_lWtVOOEXYr1vXT_N-118" value="&lt;b&gt;&lt;font color=&quot;#ea6b66&quot;&gt;拉配置、配置子系统，直连 Console 还是通过Collector中转?&lt;br&gt;&lt;br&gt;&lt;/font&gt;&lt;/b&gt;" style="text;html=1;align=left;verticalAlign=middle;resizable=0;points=[];autosize=1;fontSize=12;" parent="1" vertex="1">
          <mxGeometry x="1187" y="5146" width="339" height="32" as="geometry" />
        </mxCell>
        <mxCell id="Koj_lWtVOOEXYr1vXT_N-119" value="&lt;b&gt;&lt;font color=&quot;#ea6b66&quot;&gt;Agent 连接目标的Collector IP, Agent固定死，还是Console返回 ？&lt;br&gt;&lt;/font&gt;&lt;/b&gt;" style="text;html=1;align=left;verticalAlign=middle;resizable=0;points=[];autosize=1;fontSize=12;" parent="1" vertex="1">
          <mxGeometry x="1187" y="5185" width="371" height="18" as="geometry" />
        </mxCell>
        <mxCell id="Koj_lWtVOOEXYr1vXT_N-120" value="&lt;span style=&quot;text-align: center&quot;&gt;&lt;font color=&quot;#ea6b66&quot;&gt;完全保留原有Pinpoint的心跳数据？&lt;br&gt;&lt;/font&gt;&lt;/span&gt;&lt;span&gt;&lt;font color=&quot;#ea6b66&quot;&gt;包括Ping\Pong&lt;br&gt;实例信息:PID、 JVM Version、启动时间、状态....&amp;nbsp;&lt;br&gt;&lt;br&gt;&lt;/font&gt;&lt;/span&gt;" style="text;html=1;align=left;verticalAlign=middle;resizable=0;points=[];autosize=1;fontSize=12;fontStyle=1" parent="1" vertex="1">
          <mxGeometry x="1188.25" y="5224" width="281" height="60" as="geometry" />
        </mxCell>
        <mxCell id="Koj_lWtVOOEXYr1vXT_N-121" value="&lt;span style=&quot;font-size: 18px&quot;&gt;原Pinpoint Agnet连接Colletor ,Ping/Pong/HandShake 机制&lt;/span&gt;" style="text;html=1;strokeColor=none;fillColor=none;align=left;verticalAlign=middle;whiteSpace=wrap;rounded=0;fontStyle=1" parent="1" vertex="1">
          <mxGeometry x="92.5" y="5764" width="589" height="20" as="geometry" />
        </mxCell>
        <mxCell id="Koj_lWtVOOEXYr1vXT_N-169" style="edgeStyle=none;rounded=0;orthogonalLoop=1;jettySize=auto;html=1;exitX=0.5;exitY=1;exitDx=0;exitDy=0;startArrow=none;startFill=0;endArrow=none;endFill=0;strokeColor=#808080;fontSize=12;" parent="1" source="Koj_lWtVOOEXYr1vXT_N-187" edge="1">
          <mxGeometry relative="1" as="geometry">
            <mxPoint x="174" y="6522" as="targetPoint" />
          </mxGeometry>
        </mxCell>
        <mxCell id="Koj_lWtVOOEXYr1vXT_N-170" value="Agent" style="shadow=1;fillColor=#77e6cb;strokeColor=none;fontSize=12;" parent="1" vertex="1">
          <mxGeometry x="90" y="5805" width="170" height="50" as="geometry" />
        </mxCell>
        <mxCell id="Koj_lWtVOOEXYr1vXT_N-171" value="Collector" style="shadow=1;fillColor=#77e6cb;strokeColor=none;fontSize=12;" parent="1" vertex="1">
          <mxGeometry x="579" y="5805" width="170" height="50" as="geometry" />
        </mxCell>
        <mxCell id="Koj_lWtVOOEXYr1vXT_N-172" style="edgeStyle=none;rounded=0;orthogonalLoop=1;jettySize=auto;html=1;exitX=0.5;exitY=1;exitDx=0;exitDy=0;startArrow=none;startFill=0;endArrow=none;endFill=0;strokeColor=#808080;fontSize=12;" parent="1" source="Koj_lWtVOOEXYr1vXT_N-189" edge="1">
          <mxGeometry relative="1" as="geometry">
            <mxPoint x="677" y="6530" as="targetPoint" />
            <mxPoint x="675.94" y="5871" as="sourcePoint" />
          </mxGeometry>
        </mxCell>
        <mxCell id="Koj_lWtVOOEXYr1vXT_N-173" value="" style="edgeStyle=none;rounded=0;orthogonalLoop=1;jettySize=auto;html=1;startArrow=none;startFill=0;endArrow=classic;endFill=1;strokeColor=#808080;fontSize=12;" parent="1" source="Koj_lWtVOOEXYr1vXT_N-176" target="Koj_lWtVOOEXYr1vXT_N-174" edge="1">
          <mxGeometry relative="1" as="geometry" />
        </mxCell>
        <mxCell id="Koj_lWtVOOEXYr1vXT_N-174" value="" style="html=1;points=[];perimeter=orthogonalPerimeter;fillColor=#77e6cb4d;" parent="1" vertex="1">
          <mxGeometry x="671.5" y="5903" width="10" height="114" as="geometry" />
        </mxCell>
        <mxCell id="Koj_lWtVOOEXYr1vXT_N-175" style="edgeStyle=none;rounded=0;orthogonalLoop=1;jettySize=auto;html=1;exitX=0.5;exitY=1;exitDx=0;exitDy=0;startArrow=none;startFill=0;endArrow=none;endFill=0;strokeColor=#808080;fontSize=12;" parent="1" target="Koj_lWtVOOEXYr1vXT_N-174" edge="1">
          <mxGeometry relative="1" as="geometry">
            <mxPoint x="676.0511111111109" y="6450.222222222223" as="targetPoint" />
            <mxPoint x="675.94" y="5855" as="sourcePoint" />
          </mxGeometry>
        </mxCell>
        <mxCell id="Koj_lWtVOOEXYr1vXT_N-176" value="" style="html=1;points=[];perimeter=orthogonalPerimeter;fillColor=#77e6cb4d;" parent="1" vertex="1">
          <mxGeometry x="170" y="5903" width="10" height="120" as="geometry" />
        </mxCell>
        <mxCell id="Koj_lWtVOOEXYr1vXT_N-177" style="edgeStyle=none;rounded=0;orthogonalLoop=1;jettySize=auto;html=1;exitX=0.5;exitY=1;exitDx=0;exitDy=0;startArrow=none;startFill=0;endArrow=none;endFill=0;strokeColor=#808080;fontSize=12;" parent="1" source="Koj_lWtVOOEXYr1vXT_N-170" target="Koj_lWtVOOEXYr1vXT_N-176" edge="1">
          <mxGeometry relative="1" as="geometry">
            <mxPoint x="175.1111111111111" y="6450.222222222223" as="targetPoint" />
            <mxPoint x="175" y="5855" as="sourcePoint" />
          </mxGeometry>
        </mxCell>
        <mxCell id="Koj_lWtVOOEXYr1vXT_N-178" value="启动" style="text;html=1;align=center;verticalAlign=middle;resizable=0;points=[];autosize=1;fontSize=12;" parent="1" vertex="1">
          <mxGeometry x="138" y="5898" width="34" height="18" as="geometry" />
        </mxCell>
        <mxCell id="Koj_lWtVOOEXYr1vXT_N-179" value="通过 Netty 建立 TCP连接" style="text;html=1;align=center;verticalAlign=middle;resizable=0;points=[];autosize=1;fontSize=12;" parent="1" vertex="1">
          <mxGeometry x="341" y="5934" width="144" height="18" as="geometry" />
        </mxCell>
        <mxCell id="Koj_lWtVOOEXYr1vXT_N-181" value="" style="edgeStyle=orthogonalEdgeStyle;curved=1;rounded=0;orthogonalLoop=1;jettySize=auto;html=1;startArrow=classic;startFill=1;endArrow=classic;endFill=1;strokeColor=#808080;fontSize=12;" parent="1" source="Koj_lWtVOOEXYr1vXT_N-182" target="Koj_lWtVOOEXYr1vXT_N-185" edge="1">
          <mxGeometry relative="1" as="geometry">
            <Array as="points">
              <mxPoint x="376" y="6087" />
              <mxPoint x="376" y="6087" />
            </Array>
          </mxGeometry>
        </mxCell>
        <mxCell id="Koj_lWtVOOEXYr1vXT_N-182" value="" style="html=1;points=[];perimeter=orthogonalPerimeter;fillColor=#77e6cb4d;" parent="1" vertex="1">
          <mxGeometry x="170" y="6062" width="10" height="120" as="geometry" />
        </mxCell>
        <mxCell id="Koj_lWtVOOEXYr1vXT_N-183" style="edgeStyle=none;rounded=0;orthogonalLoop=1;jettySize=auto;html=1;exitX=0.5;exitY=1;exitDx=0;exitDy=0;startArrow=none;startFill=0;endArrow=none;endFill=0;strokeColor=#808080;fontSize=12;" parent="1" source="Koj_lWtVOOEXYr1vXT_N-176" target="Koj_lWtVOOEXYr1vXT_N-182" edge="1">
          <mxGeometry relative="1" as="geometry">
            <mxPoint x="175.1111111111113" y="6450.222222222223" as="targetPoint" />
            <mxPoint x="175" y="6023" as="sourcePoint" />
          </mxGeometry>
        </mxCell>
        <mxCell id="Koj_lWtVOOEXYr1vXT_N-184" value="心跳" style="text;html=1;align=center;verticalAlign=middle;resizable=0;points=[];autosize=1;fontSize=12;" parent="1" vertex="1">
          <mxGeometry x="136" y="6064" width="34" height="18" as="geometry" />
        </mxCell>
        <mxCell id="Koj_lWtVOOEXYr1vXT_N-185" value="" style="html=1;points=[];perimeter=orthogonalPerimeter;fillColor=#77e6cb4d;" parent="1" vertex="1">
          <mxGeometry x="671.5" y="6062" width="10" height="120" as="geometry" />
        </mxCell>
        <mxCell id="Koj_lWtVOOEXYr1vXT_N-186" style="edgeStyle=none;rounded=0;orthogonalLoop=1;jettySize=auto;html=1;exitX=0.5;exitY=1;exitDx=0;exitDy=0;startArrow=none;startFill=0;endArrow=none;endFill=0;strokeColor=#808080;fontSize=12;" parent="1" source="Koj_lWtVOOEXYr1vXT_N-174" target="Koj_lWtVOOEXYr1vXT_N-185" edge="1">
          <mxGeometry relative="1" as="geometry">
            <mxPoint x="676.0511111111109" y="6450.222222222223" as="targetPoint" />
            <mxPoint x="676.5000000000005" y="6017" as="sourcePoint" />
          </mxGeometry>
        </mxCell>
        <mxCell id="Koj_lWtVOOEXYr1vXT_N-187" value="" style="html=1;points=[];perimeter=orthogonalPerimeter;fillColor=#77e6cb4d;" parent="1" vertex="1">
          <mxGeometry x="170" y="6358" width="10" height="120" as="geometry" />
        </mxCell>
        <mxCell id="Koj_lWtVOOEXYr1vXT_N-188" style="edgeStyle=none;rounded=0;orthogonalLoop=1;jettySize=auto;html=1;exitX=0.5;exitY=1;exitDx=0;exitDy=0;startArrow=none;startFill=0;endArrow=none;endFill=0;strokeColor=#808080;fontSize=12;" parent="1" source="Koj_lWtVOOEXYr1vXT_N-182" target="Koj_lWtVOOEXYr1vXT_N-187" edge="1">
          <mxGeometry relative="1" as="geometry">
            <mxPoint x="175.1111111111111" y="6450.222222222223" as="targetPoint" />
            <mxPoint x="175" y="6200" as="sourcePoint" />
          </mxGeometry>
        </mxCell>
        <mxCell id="Koj_lWtVOOEXYr1vXT_N-189" value="" style="html=1;points=[];perimeter=orthogonalPerimeter;fillColor=#77e6cb4d;" parent="1" vertex="1">
          <mxGeometry x="671.5" y="6358" width="10" height="120" as="geometry" />
        </mxCell>
        <mxCell id="Koj_lWtVOOEXYr1vXT_N-190" style="edgeStyle=none;rounded=0;orthogonalLoop=1;jettySize=auto;html=1;exitX=0.5;exitY=1;exitDx=0;exitDy=0;startArrow=none;startFill=0;endArrow=none;endFill=0;strokeColor=#808080;fontSize=12;" parent="1" source="Koj_lWtVOOEXYr1vXT_N-185" target="Koj_lWtVOOEXYr1vXT_N-189" edge="1">
          <mxGeometry relative="1" as="geometry">
            <mxPoint x="676.0511111111109" y="6450.222222222223" as="targetPoint" />
            <mxPoint x="676.5" y="6200" as="sourcePoint" />
          </mxGeometry>
        </mxCell>
        <mxCell id="Koj_lWtVOOEXYr1vXT_N-191" style="edgeStyle=none;rounded=0;orthogonalLoop=1;jettySize=auto;html=1;exitX=0;exitY=0.3333333333333333;exitDx=0;exitDy=0;exitPerimeter=0;startArrow=none;startFill=0;endArrow=classic;endFill=1;strokeColor=#808080;fontSize=12;" parent="1" edge="1">
          <mxGeometry relative="1" as="geometry">
            <mxPoint x="669.1100000000001" y="6417.96" as="sourcePoint" />
            <mxPoint x="181" y="6417" as="targetPoint" />
          </mxGeometry>
        </mxCell>
        <mxCell id="Koj_lWtVOOEXYr1vXT_N-192" value="双向Ping/Pong" style="text;html=1;align=center;verticalAlign=middle;resizable=0;points=[];autosize=1;fontSize=12;" parent="1" vertex="1">
          <mxGeometry x="381" y="6062" width="89" height="18" as="geometry" />
        </mxCell>
        <mxCell id="Koj_lWtVOOEXYr1vXT_N-193" value="" style="edgeStyle=orthogonalEdgeStyle;curved=1;rounded=0;orthogonalLoop=1;jettySize=auto;html=1;startArrow=none;startFill=0;endArrow=classic;endFill=1;strokeColor=#808080;fontSize=12;" parent="1" edge="1">
          <mxGeometry relative="1" as="geometry">
            <mxPoint x="182" y="6143" as="sourcePoint" />
            <mxPoint x="673.5" y="6143" as="targetPoint" />
            <Array as="points">
              <mxPoint x="378" y="6143" />
              <mxPoint x="378" y="6143" />
            </Array>
          </mxGeometry>
        </mxCell>
        <mxCell id="Koj_lWtVOOEXYr1vXT_N-194" value="HandShake 上报AgentInfo" style="text;html=1;align=center;verticalAlign=middle;resizable=0;points=[];autosize=1;fontSize=12;" parent="1" vertex="1">
          <mxGeometry x="350" y="6120" width="151" height="18" as="geometry" />
        </mxCell>
        <mxCell id="Koj_lWtVOOEXYr1vXT_N-195" value="&lt;&lt;AgentInfo&gt;&gt;&#xa;&#xa;agentId&#xa;ApplicationName&#xa;isContainer&#xa;startTime&#xa;pid&#xa;machineName&#xa;hostIp&#xa;ServerType&#xa;jvmVersion&#xa;agentVersion&#xa;idc&#xa;dcn&#xa;subSystemId" style="shadow=1;fillColor=#77e6cb;strokeColor=none;fontStyle=0;fontSize=12;" parent="1" vertex="1">
          <mxGeometry x="632" y="6754" width="170" height="215" as="geometry" />
        </mxCell>
        <mxCell id="Koj_lWtVOOEXYr1vXT_N-196" value="Close" style="text;html=1;align=center;verticalAlign=middle;resizable=0;points=[];autosize=1;fontSize=12;" parent="1" vertex="1">
          <mxGeometry x="405.5" y="6391" width="41" height="18" as="geometry" />
        </mxCell>
        <mxCell id="Koj_lWtVOOEXYr1vXT_N-197" value="&lt;b&gt;触发条件&lt;/b&gt;&lt;br&gt;无HandShake, Agent Ping 5次&lt;br&gt;Collector Ping， Agent 无Pong&lt;br&gt;Agent状态不一致&lt;br&gt;HandShake数据少字段" style="text;html=1;align=left;verticalAlign=middle;resizable=0;points=[];autosize=1;fontSize=12;" parent="1" vertex="1">
          <mxGeometry x="696" y="6357" width="174" height="74" as="geometry" />
        </mxCell>
        <mxCell id="Koj_lWtVOOEXYr1vXT_N-198" value="" style="html=1;points=[];perimeter=orthogonalPerimeter;fillColor=#77e6cb4d;" parent="1" vertex="1">
          <mxGeometry x="170.25" y="6214" width="10" height="120" as="geometry" />
        </mxCell>
        <mxCell id="Koj_lWtVOOEXYr1vXT_N-199" value="" style="html=1;points=[];perimeter=orthogonalPerimeter;fillColor=#77e6cb4d;" parent="1" vertex="1">
          <mxGeometry x="671.75" y="6214" width="10" height="120" as="geometry" />
        </mxCell>
        <mxCell id="Koj_lWtVOOEXYr1vXT_N-200" style="edgeStyle=none;rounded=0;orthogonalLoop=1;jettySize=auto;html=1;startArrow=none;startFill=0;endArrow=classic;endFill=1;strokeColor=#808080;fontSize=12;entryX=-0.108;entryY=0.442;entryDx=0;entryDy=0;entryPerimeter=0;" parent="1" target="Koj_lWtVOOEXYr1vXT_N-199" edge="1">
          <mxGeometry relative="1" as="geometry">
            <mxPoint x="181" y="6267" as="sourcePoint" />
            <mxPoint x="604" y="6245" as="targetPoint" />
          </mxGeometry>
        </mxCell>
        <mxCell id="Koj_lWtVOOEXYr1vXT_N-201" value="&amp;nbsp;AgentInfo, MetaData经过Thrift或PB 序列化，&amp;nbsp; 发送" style="text;html=1;align=center;verticalAlign=middle;resizable=0;points=[];autosize=1;fontSize=12;" parent="1" vertex="1">
          <mxGeometry x="285.75" y="6247" width="284" height="18" as="geometry" />
        </mxCell>
        <mxCell id="Koj_lWtVOOEXYr1vXT_N-202" value="&lt;span style=&quot;color: rgb(0, 0, 0); font-family: helvetica; font-size: 12px; font-style: normal; font-weight: 400; letter-spacing: normal; text-align: center; text-indent: 0px; text-transform: none; word-spacing: 0px; background-color: rgb(248, 249, 250); display: inline; float: none;&quot;&gt;发送业务数据&lt;/span&gt;" style="text;whiteSpace=wrap;html=1;fontSize=12;" parent="1" vertex="1">
          <mxGeometry x="82.99555555555543" y="6213.998888888888" width="92" height="28" as="geometry" />
        </mxCell>
        <mxCell id="Koj_lWtVOOEXYr1vXT_N-208" value="&lt;b&gt;&lt;font color=&quot;#ea6b66&quot;&gt;比开始一个新功能还困难&lt;br&gt;&lt;br&gt;架构、技术方案等，尽早确认并达成共识&lt;br&gt;&lt;br&gt;&lt;br&gt;&lt;/font&gt;&lt;/b&gt;" style="text;html=1;align=left;verticalAlign=middle;resizable=0;points=[];autosize=1;fontSize=12;" parent="1" vertex="1">
          <mxGeometry x="136" y="6828" width="226" height="74" as="geometry" />
        </mxCell>
        <mxCell id="Koj_lWtVOOEXYr1vXT_N-209" style="edgeStyle=none;rounded=0;orthogonalLoop=1;jettySize=auto;html=1;exitX=0.5;exitY=1;exitDx=0;exitDy=0;startArrow=none;startFill=0;endArrow=none;endFill=0;strokeColor=#808080;fontSize=12;" parent="1" source="Koj_lWtVOOEXYr1vXT_N-237" edge="1">
          <mxGeometry relative="1" as="geometry">
            <mxPoint x="1162.3611111111113" y="6475.472222222223" as="targetPoint" />
          </mxGeometry>
        </mxCell>
        <mxCell id="Koj_lWtVOOEXYr1vXT_N-210" value="Agent" style="shadow=1;fillColor=#77e6cb;strokeColor=none;fontSize=12;" parent="1" vertex="1">
          <mxGeometry x="1077.25" y="5814.25" width="170" height="50" as="geometry" />
        </mxCell>
        <mxCell id="Koj_lWtVOOEXYr1vXT_N-211" value="配置管理中心" style="shadow=1;fillColor=#77e6cb;strokeColor=none;fontSize=12;" parent="1" vertex="1">
          <mxGeometry x="1566.25" y="5814.25" width="170" height="50" as="geometry" />
        </mxCell>
        <mxCell id="Koj_lWtVOOEXYr1vXT_N-212" value="Console" style="shadow=1;fillColor=#77e6cb;strokeColor=none;fontSize=12;" parent="1" vertex="1">
          <mxGeometry x="1912.25" y="5814.25" width="170" height="50" as="geometry" />
        </mxCell>
        <mxCell id="Koj_lWtVOOEXYr1vXT_N-213" style="edgeStyle=none;rounded=0;orthogonalLoop=1;jettySize=auto;html=1;exitX=0.5;exitY=1;exitDx=0;exitDy=0;startArrow=none;startFill=0;endArrow=none;endFill=0;strokeColor=#808080;fontSize=12;" parent="1" source="Koj_lWtVOOEXYr1vXT_N-241" edge="1">
          <mxGeometry relative="1" as="geometry">
            <mxPoint x="1663.3011111111105" y="6475.472222222223" as="targetPoint" />
            <mxPoint x="1663.19" y="5880.25" as="sourcePoint" />
          </mxGeometry>
        </mxCell>
        <mxCell id="Koj_lWtVOOEXYr1vXT_N-214" value="" style="edgeStyle=none;rounded=0;orthogonalLoop=1;jettySize=auto;html=1;startArrow=none;startFill=0;endArrow=classic;endFill=1;strokeColor=#808080;fontSize=12;" parent="1" source="Koj_lWtVOOEXYr1vXT_N-218" target="Koj_lWtVOOEXYr1vXT_N-216" edge="1">
          <mxGeometry relative="1" as="geometry" />
        </mxCell>
        <mxCell id="Koj_lWtVOOEXYr1vXT_N-216" value="" style="html=1;points=[];perimeter=orthogonalPerimeter;fillColor=#77e6cb4d;" parent="1" vertex="1">
          <mxGeometry x="1658.75" y="5912.25" width="10" height="114" as="geometry" />
        </mxCell>
        <mxCell id="Koj_lWtVOOEXYr1vXT_N-217" style="edgeStyle=none;rounded=0;orthogonalLoop=1;jettySize=auto;html=1;exitX=0.5;exitY=1;exitDx=0;exitDy=0;startArrow=none;startFill=0;endArrow=none;endFill=0;strokeColor=#808080;fontSize=12;" parent="1" target="Koj_lWtVOOEXYr1vXT_N-216" edge="1">
          <mxGeometry relative="1" as="geometry">
            <mxPoint x="1663.301111111111" y="6459.472222222223" as="targetPoint" />
            <mxPoint x="1663.1900000000005" y="5864.25" as="sourcePoint" />
          </mxGeometry>
        </mxCell>
        <mxCell id="Koj_lWtVOOEXYr1vXT_N-218" value="" style="html=1;points=[];perimeter=orthogonalPerimeter;fillColor=#77e6cb4d;" parent="1" vertex="1">
          <mxGeometry x="1157.25" y="5912.25" width="10" height="120" as="geometry" />
        </mxCell>
        <mxCell id="Koj_lWtVOOEXYr1vXT_N-219" style="edgeStyle=none;rounded=0;orthogonalLoop=1;jettySize=auto;html=1;exitX=0.5;exitY=1;exitDx=0;exitDy=0;startArrow=none;startFill=0;endArrow=none;endFill=0;strokeColor=#808080;fontSize=12;" parent="1" source="Koj_lWtVOOEXYr1vXT_N-210" target="Koj_lWtVOOEXYr1vXT_N-218" edge="1">
          <mxGeometry relative="1" as="geometry">
            <mxPoint x="1162.361111111111" y="6459.472222222223" as="targetPoint" />
            <mxPoint x="1162.25" y="5864.25" as="sourcePoint" />
          </mxGeometry>
        </mxCell>
        <mxCell id="Koj_lWtVOOEXYr1vXT_N-220" value="启动" style="text;html=1;align=center;verticalAlign=middle;resizable=0;points=[];autosize=1;fontSize=12;" parent="1" vertex="1">
          <mxGeometry x="1125.25" y="5907.25" width="34" height="18" as="geometry" />
        </mxCell>
        <mxCell id="Koj_lWtVOOEXYr1vXT_N-221" value="上报启动参数、ip，拉配置，" style="text;html=1;align=center;verticalAlign=middle;resizable=0;points=[];autosize=1;fontSize=12;" parent="1" vertex="1">
          <mxGeometry x="1211.25" y="5944.25" width="163" height="18" as="geometry" />
        </mxCell>
        <mxCell id="Koj_lWtVOOEXYr1vXT_N-222" style="edgeStyle=none;rounded=0;orthogonalLoop=1;jettySize=auto;html=1;exitX=0.5;exitY=1;exitDx=0;exitDy=0;startArrow=none;startFill=0;endArrow=none;endFill=0;strokeColor=#808080;fontSize=12;" parent="1" source="Koj_lWtVOOEXYr1vXT_N-239" edge="1">
          <mxGeometry relative="1" as="geometry">
            <mxPoint x="2002.25" y="6489.25" as="targetPoint" />
            <mxPoint x="2002.25" y="5880.25" as="sourcePoint" />
          </mxGeometry>
        </mxCell>
        <mxCell id="Koj_lWtVOOEXYr1vXT_N-223" value="" style="html=1;points=[];perimeter=orthogonalPerimeter;fillColor=#77e6cb4d;" parent="1" vertex="1">
          <mxGeometry x="1997.25" y="5940.25" width="10" height="88" as="geometry" />
        </mxCell>
        <mxCell id="Koj_lWtVOOEXYr1vXT_N-224" style="edgeStyle=none;rounded=0;orthogonalLoop=1;jettySize=auto;html=1;exitX=0.5;exitY=1;exitDx=0;exitDy=0;startArrow=none;startFill=0;endArrow=none;endFill=0;strokeColor=#808080;fontSize=12;" parent="1" target="Koj_lWtVOOEXYr1vXT_N-223" edge="1">
          <mxGeometry relative="1" as="geometry">
            <mxPoint x="2002.25" y="6473.25" as="targetPoint" />
            <mxPoint x="2002.25" y="5864.25" as="sourcePoint" />
          </mxGeometry>
        </mxCell>
        <mxCell id="Koj_lWtVOOEXYr1vXT_N-226" value="" style="edgeStyle=none;rounded=0;orthogonalLoop=1;jettySize=auto;html=1;startArrow=none;startFill=0;endArrow=classic;endFill=1;strokeColor=#808080;fontSize=12;" parent="1" edge="1">
          <mxGeometry relative="1" as="geometry">
            <mxPoint x="1655.2500000000005" y="6007.25" as="sourcePoint" />
            <mxPoint x="1171.25" y="6007.25" as="targetPoint" />
          </mxGeometry>
        </mxCell>
        <mxCell id="Koj_lWtVOOEXYr1vXT_N-227" value="匹配子系统" style="text;html=1;align=center;verticalAlign=middle;resizable=0;points=[];autosize=1;fontSize=12;" parent="1" vertex="1">
          <mxGeometry x="1375.25" y="5943.25" width="70" height="18" as="geometry" />
        </mxCell>
        <mxCell id="Koj_lWtVOOEXYr1vXT_N-228" value="返回 子系统id、name、idc、dcn、agentid及配置" style="text;html=1;align=center;verticalAlign=middle;resizable=0;points=[];autosize=1;fontSize=12;" parent="1" vertex="1">
          <mxGeometry x="1250.5" y="6010.25" width="271" height="18" as="geometry" />
        </mxCell>
        <mxCell id="Koj_lWtVOOEXYr1vXT_N-229" value="" style="edgeStyle=orthogonalEdgeStyle;curved=1;rounded=0;orthogonalLoop=1;jettySize=auto;html=1;dashed=1;startArrow=classic;startFill=1;endArrow=classic;endFill=1;strokeColor=#808080;fontSize=12;" parent="1" source="Koj_lWtVOOEXYr1vXT_N-230" target="Koj_lWtVOOEXYr1vXT_N-233" edge="1">
          <mxGeometry relative="1" as="geometry" />
        </mxCell>
        <mxCell id="Koj_lWtVOOEXYr1vXT_N-230" value="" style="html=1;points=[];perimeter=orthogonalPerimeter;fillColor=#77e6cb4d;" parent="1" vertex="1">
          <mxGeometry x="1157.25" y="6071.25" width="10" height="120" as="geometry" />
        </mxCell>
        <mxCell id="Koj_lWtVOOEXYr1vXT_N-231" style="edgeStyle=none;rounded=0;orthogonalLoop=1;jettySize=auto;html=1;exitX=0.5;exitY=1;exitDx=0;exitDy=0;startArrow=none;startFill=0;endArrow=none;endFill=0;strokeColor=#808080;fontSize=12;" parent="1" source="Koj_lWtVOOEXYr1vXT_N-218" target="Koj_lWtVOOEXYr1vXT_N-230" edge="1">
          <mxGeometry relative="1" as="geometry">
            <mxPoint x="1162.3611111111113" y="6459.472222222223" as="targetPoint" />
            <mxPoint x="1162.25" y="6032.25" as="sourcePoint" />
          </mxGeometry>
        </mxCell>
        <mxCell id="Koj_lWtVOOEXYr1vXT_N-232" value="心跳" style="text;html=1;align=center;verticalAlign=middle;resizable=0;points=[];autosize=1;fontSize=12;" parent="1" vertex="1">
          <mxGeometry x="1113.75" y="6072.25" width="34" height="18" as="geometry" />
        </mxCell>
        <mxCell id="Koj_lWtVOOEXYr1vXT_N-233" value="" style="html=1;points=[];perimeter=orthogonalPerimeter;fillColor=#77e6cb4d;" parent="1" vertex="1">
          <mxGeometry x="1658.75" y="6071.25" width="10" height="120" as="geometry" />
        </mxCell>
        <mxCell id="Koj_lWtVOOEXYr1vXT_N-234" style="edgeStyle=none;rounded=0;orthogonalLoop=1;jettySize=auto;html=1;exitX=0.5;exitY=1;exitDx=0;exitDy=0;startArrow=none;startFill=0;endArrow=none;endFill=0;strokeColor=#808080;fontSize=12;" parent="1" source="Koj_lWtVOOEXYr1vXT_N-216" target="Koj_lWtVOOEXYr1vXT_N-233" edge="1">
          <mxGeometry relative="1" as="geometry">
            <mxPoint x="1663.301111111111" y="6459.472222222223" as="targetPoint" />
            <mxPoint x="1663.7500000000005" y="6026.25" as="sourcePoint" />
          </mxGeometry>
        </mxCell>
        <mxCell id="Koj_lWtVOOEXYr1vXT_N-235" style="edgeStyle=none;rounded=0;orthogonalLoop=1;jettySize=auto;html=1;exitX=0;exitY=0.3333333333333333;exitDx=0;exitDy=0;exitPerimeter=0;startArrow=none;startFill=0;endArrow=classic;endFill=1;strokeColor=#808080;fontSize=12;" parent="1" source="Koj_lWtVOOEXYr1vXT_N-236" target="Koj_lWtVOOEXYr1vXT_N-239" edge="1">
          <mxGeometry relative="1" as="geometry" />
        </mxCell>
        <mxCell id="Koj_lWtVOOEXYr1vXT_N-236" value="Actor" style="shape=umlActor;verticalLabelPosition=bottom;verticalAlign=top;html=1;outlineConnect=0;fillColor=#77e6cb4d;" parent="1" vertex="1">
          <mxGeometry x="2106.25" y="6242.25" width="30" height="60" as="geometry" />
        </mxCell>
        <mxCell id="Koj_lWtVOOEXYr1vXT_N-237" value="" style="html=1;points=[];perimeter=orthogonalPerimeter;fillColor=#77e6cb4d;" parent="1" vertex="1">
          <mxGeometry x="1157.25" y="6231.25" width="10" height="120" as="geometry" />
        </mxCell>
        <mxCell id="Koj_lWtVOOEXYr1vXT_N-238" style="edgeStyle=none;rounded=0;orthogonalLoop=1;jettySize=auto;html=1;exitX=0.5;exitY=1;exitDx=0;exitDy=0;startArrow=none;startFill=0;endArrow=none;endFill=0;strokeColor=#808080;fontSize=12;" parent="1" source="Koj_lWtVOOEXYr1vXT_N-230" target="Koj_lWtVOOEXYr1vXT_N-237" edge="1">
          <mxGeometry relative="1" as="geometry">
            <mxPoint x="1162.361111111111" y="6459.472222222223" as="targetPoint" />
            <mxPoint x="1162.25" y="6209.25" as="sourcePoint" />
          </mxGeometry>
        </mxCell>
        <mxCell id="Koj_lWtVOOEXYr1vXT_N-239" value="" style="html=1;points=[];perimeter=orthogonalPerimeter;fillColor=#77e6cb4d;" parent="1" vertex="1">
          <mxGeometry x="1997.25" y="6225.25" width="10" height="120" as="geometry" />
        </mxCell>
        <mxCell id="Koj_lWtVOOEXYr1vXT_N-240" style="edgeStyle=none;rounded=0;orthogonalLoop=1;jettySize=auto;html=1;exitX=0.5;exitY=1;exitDx=0;exitDy=0;startArrow=none;startFill=0;endArrow=none;endFill=0;strokeColor=#808080;fontSize=12;" parent="1" source="Koj_lWtVOOEXYr1vXT_N-223" target="Koj_lWtVOOEXYr1vXT_N-239" edge="1">
          <mxGeometry relative="1" as="geometry">
            <mxPoint x="2002.2500000000005" y="6473.25" as="targetPoint" />
            <mxPoint x="2002.2500000000005" y="6028.25" as="sourcePoint" />
          </mxGeometry>
        </mxCell>
        <mxCell id="Koj_lWtVOOEXYr1vXT_N-241" value="" style="html=1;points=[];perimeter=orthogonalPerimeter;fillColor=#77e6cb4d;" parent="1" vertex="1">
          <mxGeometry x="1658.75" y="6231.25" width="10" height="120" as="geometry" />
        </mxCell>
        <mxCell id="Koj_lWtVOOEXYr1vXT_N-242" style="edgeStyle=none;rounded=0;orthogonalLoop=1;jettySize=auto;html=1;exitX=0.5;exitY=1;exitDx=0;exitDy=0;startArrow=none;startFill=0;endArrow=none;endFill=0;strokeColor=#808080;fontSize=12;" parent="1" source="Koj_lWtVOOEXYr1vXT_N-233" target="Koj_lWtVOOEXYr1vXT_N-241" edge="1">
          <mxGeometry relative="1" as="geometry">
            <mxPoint x="1663.301111111111" y="6459.472222222223" as="targetPoint" />
            <mxPoint x="1663.75" y="6209.25" as="sourcePoint" />
          </mxGeometry>
        </mxCell>
        <mxCell id="Koj_lWtVOOEXYr1vXT_N-243" style="edgeStyle=none;rounded=0;orthogonalLoop=1;jettySize=auto;html=1;exitX=0;exitY=0.3333333333333333;exitDx=0;exitDy=0;exitPerimeter=0;startArrow=none;startFill=0;endArrow=classic;endFill=1;strokeColor=#808080;fontSize=12;entryX=1.439;entryY=0.491;entryDx=0;entryDy=0;entryPerimeter=0;" parent="1" target="Koj_lWtVOOEXYr1vXT_N-241" edge="1">
          <mxGeometry relative="1" as="geometry">
            <mxPoint x="1999.25" y="6290.69" as="sourcePoint" />
            <mxPoint x="1900.2500000000005" y="6290.69" as="targetPoint" />
          </mxGeometry>
        </mxCell>
        <mxCell id="Koj_lWtVOOEXYr1vXT_N-244" style="edgeStyle=none;rounded=0;orthogonalLoop=1;jettySize=auto;html=1;exitX=0;exitY=0.3333333333333333;exitDx=0;exitDy=0;exitPerimeter=0;startArrow=none;startFill=0;endArrow=classic;endFill=1;strokeColor=#808080;fontSize=12;" parent="1" edge="1">
          <mxGeometry relative="1" as="geometry">
            <mxPoint x="1656.3600000000006" y="6291.21" as="sourcePoint" />
            <mxPoint x="1168.25" y="6290.25" as="targetPoint" />
          </mxGeometry>
        </mxCell>
        <mxCell id="Koj_lWtVOOEXYr1vXT_N-245" value="启停操作" style="text;html=1;align=center;verticalAlign=middle;resizable=0;points=[];autosize=1;fontSize=12;" parent="1" vertex="1">
          <mxGeometry x="2036.25" y="6220.25" width="58" height="18" as="geometry" />
        </mxCell>
        <mxCell id="Koj_lWtVOOEXYr1vXT_N-248" value="写ZK" style="text;html=1;align=center;verticalAlign=middle;resizable=0;points=[];autosize=1;fontSize=12;" parent="1" vertex="1">
          <mxGeometry x="1815.25" y="6263.25" width="37" height="18" as="geometry" />
        </mxCell>
        <mxCell id="Koj_lWtVOOEXYr1vXT_N-249" value="监听ZK节点变化" style="text;html=1;align=center;verticalAlign=middle;resizable=0;points=[];autosize=1;fontSize=12;" parent="1" vertex="1">
          <mxGeometry x="1563.94" y="6231.25" width="97" height="18" as="geometry" />
        </mxCell>
        <mxCell id="Koj_lWtVOOEXYr1vXT_N-250" value="下发指令或配置" style="text;html=1;align=center;verticalAlign=middle;resizable=0;points=[];autosize=1;fontSize=12;" parent="1" vertex="1">
          <mxGeometry x="1344.25" y="6265.25" width="94" height="18" as="geometry" />
        </mxCell>
        <mxCell id="Koj_lWtVOOEXYr1vXT_N-251" style="edgeStyle=none;rounded=0;orthogonalLoop=1;jettySize=auto;html=1;startArrow=none;startFill=0;endArrow=none;endFill=0;strokeColor=#808080;fontSize=12;" parent="1" edge="1">
          <mxGeometry relative="1" as="geometry">
            <mxPoint x="1012" y="6633" as="targetPoint" />
            <mxPoint x="1006" y="5707" as="sourcePoint" />
          </mxGeometry>
        </mxCell>
        <mxCell id="Koj_lWtVOOEXYr1vXT_N-252" value="&lt;span style=&quot;font-size: 18px&quot;&gt;Agent配置管理功能&lt;/span&gt;" style="text;html=1;strokeColor=none;fillColor=none;align=left;verticalAlign=middle;whiteSpace=wrap;rounded=0;fontStyle=1" parent="1" vertex="1">
          <mxGeometry x="1071.94" y="5768.75" width="589" height="20" as="geometry" />
        </mxCell>
        <mxCell id="Koj_lWtVOOEXYr1vXT_N-257" style="edgeStyle=none;rounded=0;orthogonalLoop=1;jettySize=auto;html=1;exitX=1;exitY=0.5;exitDx=0;exitDy=0;entryX=0;entryY=0.5;entryDx=0;entryDy=0;startArrow=none;startFill=0;endArrow=classic;endFill=1;strokeColor=#808080;fontSize=13;fontStyle=1" parent="1" source="Koj_lWtVOOEXYr1vXT_N-253" target="Koj_lWtVOOEXYr1vXT_N-255" edge="1">
          <mxGeometry relative="1" as="geometry" />
        </mxCell>
        <mxCell id="Koj_lWtVOOEXYr1vXT_N-253" value="运行时挂载" style="shadow=1;fillColor=#77e6cb;strokeColor=none;fontSize=13;fontStyle=1" parent="1" vertex="1">
          <mxGeometry x="314" y="7251" width="170" height="50" as="geometry" />
        </mxCell>
        <mxCell id="Koj_lWtVOOEXYr1vXT_N-256" style="edgeStyle=none;rounded=0;orthogonalLoop=1;jettySize=auto;html=1;exitX=1;exitY=0.5;exitDx=0;exitDy=0;entryX=0;entryY=0.5;entryDx=0;entryDy=0;startArrow=none;startFill=0;endArrow=classic;endFill=1;strokeColor=#808080;fontSize=13;fontStyle=1" parent="1" source="Koj_lWtVOOEXYr1vXT_N-254" target="Koj_lWtVOOEXYr1vXT_N-255" edge="1">
          <mxGeometry relative="1" as="geometry" />
        </mxCell>
        <mxCell id="Koj_lWtVOOEXYr1vXT_N-254" value="启动时挂载" style="shadow=1;fillColor=#77e6cb;strokeColor=none;fontSize=13;fontStyle=1" parent="1" vertex="1">
          <mxGeometry x="313" y="7161" width="170" height="50" as="geometry" />
        </mxCell>
        <mxCell id="Koj_lWtVOOEXYr1vXT_N-259" value="" style="edgeStyle=none;rounded=0;orthogonalLoop=1;jettySize=auto;html=1;startArrow=none;startFill=0;endArrow=classic;endFill=1;strokeColor=#808080;fontSize=13;exitX=1;exitY=0.5;exitDx=0;exitDy=0;entryX=0;entryY=0.5;entryDx=0;entryDy=0;fontStyle=1" parent="1" source="Koj_lWtVOOEXYr1vXT_N-255" target="Koj_lWtVOOEXYr1vXT_N-258" edge="1">
          <mxGeometry relative="1" as="geometry" />
        </mxCell>
        <mxCell id="Koj_lWtVOOEXYr1vXT_N-255" value="Instrument Agent" style="shadow=1;fillColor=#77e6cb;strokeColor=none;fontSize=13;fontStyle=1" parent="1" vertex="1">
          <mxGeometry x="546" y="7209" width="170" height="50" as="geometry" />
        </mxCell>
        <mxCell id="Koj_lWtVOOEXYr1vXT_N-264" style="edgeStyle=none;rounded=0;orthogonalLoop=1;jettySize=auto;html=1;exitX=1;exitY=0.5;exitDx=0;exitDy=0;entryX=0;entryY=0.5;entryDx=0;entryDy=0;startArrow=none;startFill=0;endArrow=classic;endFill=1;strokeColor=#808080;fontSize=13;fontStyle=1" parent="1" source="Koj_lWtVOOEXYr1vXT_N-266" target="Koj_lWtVOOEXYr1vXT_N-262" edge="1">
          <mxGeometry relative="1" as="geometry" />
        </mxCell>
        <mxCell id="Koj_lWtVOOEXYr1vXT_N-258" value="Agent_OnLoad" style="shadow=1;fillColor=#77e6cb;strokeColor=none;fontSize=13;fontStyle=1" parent="1" vertex="1">
          <mxGeometry x="778" y="7161" width="170" height="50" as="geometry" />
        </mxCell>
        <mxCell id="Koj_lWtVOOEXYr1vXT_N-265" style="edgeStyle=none;rounded=0;orthogonalLoop=1;jettySize=auto;html=1;exitX=1;exitY=0.5;exitDx=0;exitDy=0;startArrow=none;startFill=0;endArrow=classic;endFill=1;strokeColor=#808080;fontSize=13;entryX=0;entryY=0.5;entryDx=0;entryDy=0;fontStyle=1" parent="1" source="Koj_lWtVOOEXYr1vXT_N-266" target="Koj_lWtVOOEXYr1vXT_N-263" edge="1">
          <mxGeometry relative="1" as="geometry" />
        </mxCell>
        <mxCell id="Koj_lWtVOOEXYr1vXT_N-270" style="edgeStyle=none;rounded=0;orthogonalLoop=1;jettySize=auto;html=1;exitX=1;exitY=0.5;exitDx=0;exitDy=0;startArrow=none;startFill=0;endArrow=classic;endFill=1;strokeColor=#808080;fontSize=13;entryX=0;entryY=0.5;entryDx=0;entryDy=0;fontStyle=1" parent="1" source="Koj_lWtVOOEXYr1vXT_N-260" target="Koj_lWtVOOEXYr1vXT_N-266" edge="1">
          <mxGeometry relative="1" as="geometry" />
        </mxCell>
        <mxCell id="Koj_lWtVOOEXYr1vXT_N-260" value="Agent_OnAttach" style="shadow=1;fillColor=#77e6cb;strokeColor=none;fontSize=13;fontStyle=1" parent="1" vertex="1">
          <mxGeometry x="778" y="7247" width="170" height="50" as="geometry" />
        </mxCell>
        <mxCell id="Koj_lWtVOOEXYr1vXT_N-261" value="" style="edgeStyle=none;rounded=0;orthogonalLoop=1;jettySize=auto;html=1;startArrow=none;startFill=0;endArrow=classic;endFill=1;strokeColor=#808080;fontSize=13;exitX=1;exitY=0.5;exitDx=0;exitDy=0;entryX=0;entryY=0.5;entryDx=0;entryDy=0;fontStyle=1" parent="1" source="Koj_lWtVOOEXYr1vXT_N-255" target="Koj_lWtVOOEXYr1vXT_N-260" edge="1">
          <mxGeometry relative="1" as="geometry">
            <mxPoint x="726" y="7244" as="sourcePoint" />
            <mxPoint x="815.5" y="7194" as="targetPoint" />
          </mxGeometry>
        </mxCell>
        <mxCell id="Koj_lWtVOOEXYr1vXT_N-275" style="edgeStyle=none;rounded=0;orthogonalLoop=1;jettySize=auto;html=1;exitX=1;exitY=0.5;exitDx=0;exitDy=0;entryX=0;entryY=0.5;entryDx=0;entryDy=0;startArrow=none;startFill=0;endArrow=classic;endFill=1;strokeColor=#808080;fontSize=13;" parent="1" source="Koj_lWtVOOEXYr1vXT_N-262" target="Koj_lWtVOOEXYr1vXT_N-274" edge="1">
          <mxGeometry relative="1" as="geometry" />
        </mxCell>
        <mxCell id="Koj_lWtVOOEXYr1vXT_N-262" value="Premain-Class # premain(args,instarumentation)" style="shadow=1;fillColor=#77e6cb;strokeColor=none;fontSize=13;fontStyle=1" parent="1" vertex="1">
          <mxGeometry x="1269" y="7159" width="306.75" height="50" as="geometry" />
        </mxCell>
        <mxCell id="Koj_lWtVOOEXYr1vXT_N-276" style="edgeStyle=none;rounded=0;orthogonalLoop=1;jettySize=auto;html=1;exitX=1;exitY=0.5;exitDx=0;exitDy=0;entryX=0;entryY=0.5;entryDx=0;entryDy=0;startArrow=none;startFill=0;endArrow=classic;endFill=1;strokeColor=#808080;fontSize=13;" parent="1" source="Koj_lWtVOOEXYr1vXT_N-263" target="Koj_lWtVOOEXYr1vXT_N-274" edge="1">
          <mxGeometry relative="1" as="geometry" />
        </mxCell>
        <mxCell id="Koj_lWtVOOEXYr1vXT_N-263" value="Agent-class # agentmain(args,instarumentation)" style="shadow=1;fillColor=#77e6cb;strokeColor=none;fontSize=13;fontStyle=1" parent="1" vertex="1">
          <mxGeometry x="1272.25" y="7257" width="306" height="50" as="geometry" />
        </mxCell>
        <mxCell id="Koj_lWtVOOEXYr1vXT_N-266" value="InstrumentationImpl &#xa;# loadClassAndStartAgent(...)" style="shadow=1;fillColor=#77e6cb;strokeColor=none;fontSize=13;fontStyle=1" parent="1" vertex="1">
          <mxGeometry x="1014" y="7211.5" width="191.75" height="50" as="geometry" />
        </mxCell>
        <mxCell id="Koj_lWtVOOEXYr1vXT_N-269" value="" style="edgeStyle=none;rounded=0;orthogonalLoop=1;jettySize=auto;html=1;startArrow=none;startFill=0;endArrow=classic;endFill=1;strokeColor=#808080;fontSize=13;exitX=1;exitY=0.5;exitDx=0;exitDy=0;entryX=0;entryY=0.5;entryDx=0;entryDy=0;fontStyle=1" parent="1" source="Koj_lWtVOOEXYr1vXT_N-258" target="Koj_lWtVOOEXYr1vXT_N-266" edge="1">
          <mxGeometry relative="1" as="geometry">
            <mxPoint x="927.5" y="7428.999999999999" as="sourcePoint" />
            <mxPoint x="1017" y="7378.999999999999" as="targetPoint" />
          </mxGeometry>
        </mxCell>
        <mxCell id="Koj_lWtVOOEXYr1vXT_N-274" value="doSomeThings(args, instarumentation)" style="shadow=1;fillColor=#77e6cb;strokeColor=none;fontSize=14;fontStyle=1" parent="1" vertex="1">
          <mxGeometry x="1645" y="7211" width="282.75" height="50" as="geometry" />
        </mxCell>
        <mxCell id="Koj_lWtVOOEXYr1vXT_N-278" value="&lt;b&gt;JVMTI Agent&lt;/b&gt;" style="text;html=1;align=left;verticalAlign=middle;resizable=0;points=[];autosize=1;fontSize=12;" parent="1" vertex="1">
          <mxGeometry x="849" y="7107" width="82" height="18" as="geometry" />
        </mxCell>
        <mxCell id="Koj_lWtVOOEXYr1vXT_N-279" value="&lt;b&gt;Java Agent&lt;/b&gt;" style="text;html=1;align=left;verticalAlign=middle;resizable=0;points=[];autosize=1;fontSize=12;" parent="1" vertex="1">
          <mxGeometry x="1565.25" y="7107" width="74" height="18" as="geometry" />
        </mxCell>
        <mxCell id="Koj_lWtVOOEXYr1vXT_N-283" style="edgeStyle=none;rounded=0;orthogonalLoop=1;jettySize=auto;html=1;exitX=1;exitY=0.5;exitDx=0;exitDy=0;startArrow=none;startFill=0;endArrow=classic;endFill=1;strokeColor=#808080;fontSize=15;fontColor=#EA6B66;" parent="1" source="Koj_lWtVOOEXYr1vXT_N-280" target="Koj_lWtVOOEXYr1vXT_N-282" edge="1">
          <mxGeometry relative="1" as="geometry" />
        </mxCell>
        <mxCell id="Koj_lWtVOOEXYr1vXT_N-280" value="" style="ellipse;whiteSpace=wrap;html=1;aspect=fixed;fillColor=#77e6cb4d;fontSize=15;" parent="1" vertex="1">
          <mxGeometry x="244" y="7628" width="80" height="80" as="geometry" />
        </mxCell>
        <mxCell id="Koj_lWtVOOEXYr1vXT_N-281" value="&lt;div style=&quot;font-size: 15px;&quot;&gt;&lt;font color=&quot;#000000&quot; face=&quot;helvetica&quot; style=&quot;font-size: 15px;&quot;&gt;java -javaagent:matrix-java-agent.jar&lt;/font&gt;&lt;/div&gt;" style="text;whiteSpace=wrap;html=1;fontSize=15;fontColor=#EA6B66;align=left;fontStyle=1" parent="1" vertex="1">
          <mxGeometry x="170.5" y="7712" width="266.5" height="45" as="geometry" />
        </mxCell>
        <mxCell id="Koj_lWtVOOEXYr1vXT_N-287" style="edgeStyle=none;rounded=0;orthogonalLoop=1;jettySize=auto;html=1;exitX=1;exitY=0.5;exitDx=0;exitDy=0;startArrow=none;startFill=0;endArrow=classic;endFill=1;strokeColor=#808080;fontSize=15;fontColor=#EA6B66;" parent="1" source="Koj_lWtVOOEXYr1vXT_N-282" target="Koj_lWtVOOEXYr1vXT_N-285" edge="1">
          <mxGeometry relative="1" as="geometry" />
        </mxCell>
        <mxCell id="Koj_lWtVOOEXYr1vXT_N-295" style="edgeStyle=none;rounded=0;orthogonalLoop=1;jettySize=auto;html=1;exitX=0.5;exitY=1;exitDx=0;exitDy=0;startArrow=none;startFill=0;endArrow=classic;endFill=1;strokeColor=#808080;fontSize=15;fontColor=#EA6B66;" parent="1" source="Koj_lWtVOOEXYr1vXT_N-282" edge="1">
          <mxGeometry relative="1" as="geometry">
            <mxPoint x="522" y="8009" as="targetPoint" />
          </mxGeometry>
        </mxCell>
        <mxCell id="Koj_lWtVOOEXYr1vXT_N-282" value=" 加载Agent.jar" style="shadow=1;fillColor=#77e6cb;strokeColor=none;fontSize=15;fontStyle=1" parent="1" vertex="1">
          <mxGeometry x="437" y="7643" width="170" height="50" as="geometry" />
        </mxCell>
        <mxCell id="Koj_lWtVOOEXYr1vXT_N-288" style="edgeStyle=none;rounded=0;orthogonalLoop=1;jettySize=auto;html=1;exitX=1;exitY=0.5;exitDx=0;exitDy=0;startArrow=none;startFill=0;endArrow=classic;endFill=1;strokeColor=#808080;fontSize=15;fontColor=#EA6B66;" parent="1" source="Koj_lWtVOOEXYr1vXT_N-285" target="Koj_lWtVOOEXYr1vXT_N-286" edge="1">
          <mxGeometry relative="1" as="geometry" />
        </mxCell>
        <mxCell id="Koj_lWtVOOEXYr1vXT_N-293" style="edgeStyle=none;rounded=0;orthogonalLoop=1;jettySize=auto;html=1;exitX=0.5;exitY=1;exitDx=0;exitDy=0;startArrow=none;startFill=0;endArrow=classic;endFill=1;strokeColor=#808080;fontSize=15;fontColor=#EA6B66;" parent="1" source="Koj_lWtVOOEXYr1vXT_N-285" target="Koj_lWtVOOEXYr1vXT_N-292" edge="1">
          <mxGeometry relative="1" as="geometry" />
        </mxCell>
        <mxCell id="Koj_lWtVOOEXYr1vXT_N-285" value="run premain(...)" style="shadow=1;fillColor=#77e6cb;strokeColor=none;fontSize=15;fontStyle=1" parent="1" vertex="1">
          <mxGeometry x="700.25" y="7643" width="170" height="50" as="geometry" />
        </mxCell>
        <mxCell id="Koj_lWtVOOEXYr1vXT_N-290" style="edgeStyle=none;rounded=0;orthogonalLoop=1;jettySize=auto;html=1;startArrow=none;startFill=0;endArrow=classic;endFill=1;strokeColor=#808080;fontSize=15;fontColor=#EA6B66;" parent="1" source="Koj_lWtVOOEXYr1vXT_N-286" target="Koj_lWtVOOEXYr1vXT_N-289" edge="1">
          <mxGeometry relative="1" as="geometry" />
        </mxCell>
        <mxCell id="Koj_lWtVOOEXYr1vXT_N-303" style="edgeStyle=none;rounded=0;orthogonalLoop=1;jettySize=auto;html=1;exitX=0.5;exitY=1;exitDx=0;exitDy=0;startArrow=none;startFill=0;endArrow=classic;endFill=1;strokeColor=#808080;fontSize=15;fontColor=#EA6B66;" parent="1" source="Koj_lWtVOOEXYr1vXT_N-286" edge="1">
          <mxGeometry relative="1" as="geometry">
            <mxPoint x="1041.3333333333335" y="8005.833333333334" as="targetPoint" />
          </mxGeometry>
        </mxCell>
        <mxCell id="Koj_lWtVOOEXYr1vXT_N-286" value="run main(...)" style="shadow=1;fillColor=#77e6cb;strokeColor=none;fontSize=15;fontStyle=1" parent="1" vertex="1">
          <mxGeometry x="956" y="7643" width="170" height="50" as="geometry" />
        </mxCell>
        <mxCell id="Koj_lWtVOOEXYr1vXT_N-320" style="edgeStyle=none;rounded=0;orthogonalLoop=1;jettySize=auto;html=1;exitX=1;exitY=0.5;exitDx=0;exitDy=0;dashed=1;startArrow=none;startFill=0;endArrow=classic;endFill=1;strokeColor=#808080;fontSize=15;fontColor=#EA6B66;" parent="1" source="Koj_lWtVOOEXYr1vXT_N-289" edge="1">
          <mxGeometry relative="1" as="geometry">
            <mxPoint x="1532.6470588235297" y="7667.705882352941" as="targetPoint" />
          </mxGeometry>
        </mxCell>
        <mxCell id="Koj_lWtVOOEXYr1vXT_N-289" value="run agentmain(...)" style="shadow=1;fillColor=#77e6cb;strokeColor=none;fontSize=15;fontStyle=1" parent="1" vertex="1">
          <mxGeometry x="1218.5" y="7643" width="170" height="50" as="geometry" />
        </mxCell>
        <mxCell id="Koj_lWtVOOEXYr1vXT_N-299" style="edgeStyle=none;rounded=0;orthogonalLoop=1;jettySize=auto;html=1;exitX=0.25;exitY=1;exitDx=0;exitDy=0;entryX=0.25;entryY=0;entryDx=0;entryDy=0;startArrow=none;startFill=0;endArrow=classic;endFill=1;strokeColor=#808080;fontSize=15;fontColor=#EA6B66;" parent="1" source="Koj_lWtVOOEXYr1vXT_N-292" target="Koj_lWtVOOEXYr1vXT_N-297" edge="1">
          <mxGeometry relative="1" as="geometry" />
        </mxCell>
        <mxCell id="Koj_lWtVOOEXYr1vXT_N-292" value="Instrumentation" style="shadow=1;fillColor=#f8cecc;strokeColor=#b85450;fontSize=15;fontStyle=1" parent="1" vertex="1">
          <mxGeometry x="700.75" y="7759" width="170" height="50" as="geometry" />
        </mxCell>
        <mxCell id="Koj_lWtVOOEXYr1vXT_N-296" style="edgeStyle=none;rounded=0;orthogonalLoop=1;jettySize=auto;html=1;startArrow=none;startFill=0;endArrow=classic;endFill=1;strokeColor=#808080;fontSize=15;fontColor=#EA6B66;entryX=0.75;entryY=1;entryDx=0;entryDy=0;" parent="1" target="Koj_lWtVOOEXYr1vXT_N-297" edge="1">
          <mxGeometry relative="1" as="geometry">
            <mxPoint x="828" y="8011" as="sourcePoint" />
            <mxPoint x="812" y="7928" as="targetPoint" />
          </mxGeometry>
        </mxCell>
        <mxCell id="Koj_lWtVOOEXYr1vXT_N-294" value="ClassLoader" style="shadow=1;fillColor=#77e6cb;strokeColor=none;fontSize=15;fontStyle=1;rounded=1;" parent="1" vertex="1">
          <mxGeometry x="437" y="8013" width="1057" height="50" as="geometry" />
        </mxCell>
        <mxCell id="Koj_lWtVOOEXYr1vXT_N-300" style="edgeStyle=none;rounded=0;orthogonalLoop=1;jettySize=auto;html=1;exitX=0.25;exitY=1;exitDx=0;exitDy=0;startArrow=none;startFill=0;endArrow=classic;endFill=1;strokeColor=#808080;fontSize=15;fontColor=#EA6B66;" parent="1" source="Koj_lWtVOOEXYr1vXT_N-297" edge="1">
          <mxGeometry relative="1" as="geometry">
            <mxPoint x="743" y="8010.833333333334" as="targetPoint" />
          </mxGeometry>
        </mxCell>
        <mxCell id="Koj_lWtVOOEXYr1vXT_N-297" value="JVMTI" style="shadow=1;fillColor=#77e6cb;strokeColor=none;fontSize=15;fontStyle=1" parent="1" vertex="1">
          <mxGeometry x="700.75" y="7867" width="170" height="50" as="geometry" />
        </mxCell>
        <mxCell id="Koj_lWtVOOEXYr1vXT_N-298" style="edgeStyle=none;rounded=0;orthogonalLoop=1;jettySize=auto;html=1;startArrow=none;startFill=0;endArrow=classic;endFill=1;strokeColor=#808080;fontSize=15;fontColor=#EA6B66;entryX=0.75;entryY=1;entryDx=0;entryDy=0;exitX=0.75;exitY=0;exitDx=0;exitDy=0;" parent="1" source="Koj_lWtVOOEXYr1vXT_N-297" target="Koj_lWtVOOEXYr1vXT_N-292" edge="1">
          <mxGeometry relative="1" as="geometry">
            <mxPoint x="829" y="7847" as="sourcePoint" />
            <mxPoint x="838.94" y="7907" as="targetPoint" />
          </mxGeometry>
        </mxCell>
        <mxCell id="Koj_lWtVOOEXYr1vXT_N-301" value="addTransformer()&lt;br style=&quot;font-size: 15px;&quot;&gt;注册字码修改逻辑" style="text;whiteSpace=wrap;html=1;fontSize=15;fontColor=#EA6B66;" parent="1" vertex="1">
          <mxGeometry x="607" y="7822.496666666667" width="128" height="31" as="geometry" />
        </mxCell>
        <mxCell id="Koj_lWtVOOEXYr1vXT_N-302" value="&lt;br style=&quot;font-size: 15px;&quot;&gt;监听Class 加载事件" style="text;html=1;align=left;verticalAlign=middle;resizable=0;points=[];autosize=1;fontSize=15;" parent="1" vertex="1">
          <mxGeometry x="626" y="7938" width="142" height="40" as="geometry" />
        </mxCell>
        <mxCell id="Koj_lWtVOOEXYr1vXT_N-304" value="应用 加载自身&lt;br style=&quot;font-size: 15px;&quot;&gt;需要的jar&amp;amp;class" style="text;html=1;align=left;verticalAlign=middle;resizable=0;points=[];autosize=1;fontSize=15;" parent="1" vertex="1">
          <mxGeometry x="1043.25" y="7769" width="116" height="40" as="geometry" />
        </mxCell>
        <mxCell id="Koj_lWtVOOEXYr1vXT_N-305" value="&lt;br style=&quot;font-size: 15px;&quot;&gt;类加载回调" style="text;html=1;align=left;verticalAlign=middle;resizable=0;points=[];autosize=1;fontSize=15;" parent="1" vertex="1">
          <mxGeometry x="834" y="7938" width="85" height="40" as="geometry" />
        </mxCell>
        <mxCell id="Koj_lWtVOOEXYr1vXT_N-306" value="&lt;br style=&quot;font-size: 15px;&quot;&gt;回调&lt;br style=&quot;font-size: 15px;&quot;&gt;ClassFileTransformer.transform()" style="text;html=1;align=left;verticalAlign=middle;resizable=0;points=[];autosize=1;fontSize=15;" parent="1" vertex="1">
          <mxGeometry x="831" y="7809" width="229" height="58" as="geometry" />
        </mxCell>
        <mxCell id="Koj_lWtVOOEXYr1vXT_N-310" style="edgeStyle=none;rounded=0;orthogonalLoop=1;jettySize=auto;html=1;exitX=0.5;exitY=1;exitDx=0;exitDy=0;startArrow=none;startFill=0;endArrow=classic;endFill=1;strokeColor=#808080;fontSize=15;fontColor=#EA6B66;" parent="1" source="Koj_lWtVOOEXYr1vXT_N-307" target="Koj_lWtVOOEXYr1vXT_N-309" edge="1">
          <mxGeometry relative="1" as="geometry" />
        </mxCell>
        <mxCell id="Koj_lWtVOOEXYr1vXT_N-307" value="Instrumentation" style="shadow=1;fillColor=#f8cecc;strokeColor=#b85450;fontSize=15;fontStyle=1" parent="1" vertex="1">
          <mxGeometry x="1218.5" y="7759" width="170" height="50" as="geometry" />
        </mxCell>
        <mxCell id="Koj_lWtVOOEXYr1vXT_N-308" style="edgeStyle=none;rounded=0;orthogonalLoop=1;jettySize=auto;html=1;exitX=0.5;exitY=1;exitDx=0;exitDy=0;startArrow=none;startFill=0;endArrow=classic;endFill=1;strokeColor=#808080;fontSize=15;fontColor=#EA6B66;" parent="1" edge="1">
          <mxGeometry relative="1" as="geometry">
            <mxPoint x="1303.0799999999997" y="7693" as="sourcePoint" />
            <mxPoint x="1303.4426373626372" y="7759" as="targetPoint" />
          </mxGeometry>
        </mxCell>
        <mxCell id="Koj_lWtVOOEXYr1vXT_N-311" style="edgeStyle=none;rounded=0;orthogonalLoop=1;jettySize=auto;html=1;exitX=0.5;exitY=1;exitDx=0;exitDy=0;startArrow=none;startFill=0;endArrow=classic;endFill=1;strokeColor=#808080;fontSize=15;fontColor=#EA6B66;" parent="1" source="Koj_lWtVOOEXYr1vXT_N-309" edge="1">
          <mxGeometry relative="1" as="geometry">
            <mxPoint x="1303.8333333333335" y="8010.833333333334" as="targetPoint" />
          </mxGeometry>
        </mxCell>
        <mxCell id="Koj_lWtVOOEXYr1vXT_N-309" value="JVMTI" style="shadow=1;fillColor=#77e6cb;strokeColor=none;fontSize=15;fontStyle=1" parent="1" vertex="1">
          <mxGeometry x="1218.5" y="7863" width="170" height="50" as="geometry" />
        </mxCell>
        <mxCell id="Koj_lWtVOOEXYr1vXT_N-312" value="retransformClasses()&lt;br style=&quot;font-size: 15px;&quot;&gt;" style="text;whiteSpace=wrap;html=1;fontSize=15;fontColor=#EA6B66;" parent="1" vertex="1">
          <mxGeometry x="1327.25" y="7808.996666666667" width="128" height="31" as="geometry" />
        </mxCell>
        <mxCell id="Koj_lWtVOOEXYr1vXT_N-313" value="重新触发类加载" style="text;html=1;align=left;verticalAlign=middle;resizable=0;points=[];autosize=1;fontSize=15;" parent="1" vertex="1">
          <mxGeometry x="1334.25" y="7955" width="115" height="22" as="geometry" />
        </mxCell>
        <mxCell id="Koj_lWtVOOEXYr1vXT_N-315" style="edgeStyle=none;rounded=0;orthogonalLoop=1;jettySize=auto;html=1;startArrow=none;startFill=0;endArrow=classic;endFill=1;strokeColor=#808080;fontSize=15;fontColor=#EA6B66;dashed=1;entryX=1.002;entryY=0.603;entryDx=0;entryDy=0;entryPerimeter=0;" parent="1" target="Koj_lWtVOOEXYr1vXT_N-314" edge="1">
          <mxGeometry relative="1" as="geometry">
            <mxPoint x="1017" y="7876" as="targetPoint" />
            <mxPoint x="1292" y="8006" as="sourcePoint" />
          </mxGeometry>
        </mxCell>
        <mxCell id="Koj_lWtVOOEXYr1vXT_N-316" value="功能受限的字节码修改" style="edgeLabel;html=1;align=center;verticalAlign=middle;resizable=0;points=[];fontSize=15;fontColor=#EA6B66;labelBackgroundColor=none;" parent="Koj_lWtVOOEXYr1vXT_N-315" vertex="1" connectable="0">
          <mxGeometry x="0.2797" y="2" relative="1" as="geometry">
            <mxPoint x="45.15" y="15.53" as="offset" />
          </mxGeometry>
        </mxCell>
        <mxCell id="Koj_lWtVOOEXYr1vXT_N-318" style="edgeStyle=none;rounded=0;orthogonalLoop=1;jettySize=auto;html=1;exitX=0.5;exitY=1;exitDx=0;exitDy=0;dashed=1;startArrow=none;startFill=0;endArrow=classic;endFill=1;strokeColor=#808080;fontSize=15;fontColor=#EA6B66;" parent="1" source="Koj_lWtVOOEXYr1vXT_N-317" target="Koj_lWtVOOEXYr1vXT_N-289" edge="1">
          <mxGeometry relative="1" as="geometry" />
        </mxCell>
        <mxCell id="Koj_lWtVOOEXYr1vXT_N-317" value="" style="ellipse;whiteSpace=wrap;html=1;aspect=fixed;fillColor=#77e6cb4d;fontSize=15;" parent="1" vertex="1">
          <mxGeometry x="1263.5" y="7494" width="80" height="80" as="geometry" />
        </mxCell>
        <mxCell id="Koj_lWtVOOEXYr1vXT_N-319" value="&lt;div style=&quot;font-size: 15px;&quot;&gt;&lt;font color=&quot;#000000&quot; face=&quot;helvetica&quot; style=&quot;font-size: 15px;&quot;&gt;Attach&amp;nbsp;&lt;/font&gt;&lt;/div&gt;&lt;span style=&quot;color: rgb(0, 0, 0); font-family: helvetica; font-size: 15px;&quot;&gt;matrix-java-agent.jar&lt;/span&gt;" style="text;whiteSpace=wrap;html=1;fontSize=15;fontColor=#EA6B66;align=left;fontStyle=1" parent="1" vertex="1">
          <mxGeometry x="1109" y="7518" width="169" height="41" as="geometry" />
        </mxCell>
        <mxCell id="Koj_lWtVOOEXYr1vXT_N-324" style="edgeStyle=none;rounded=0;orthogonalLoop=1;jettySize=auto;html=1;exitX=1;exitY=0.5;exitDx=0;exitDy=0;entryX=0;entryY=0.5;entryDx=0;entryDy=0;startArrow=none;startFill=0;endArrow=classic;endFill=1;strokeColor=#808080;fontSize=14;fontColor=#EA6B66;" parent="1" source="Koj_lWtVOOEXYr1vXT_N-321" target="Koj_lWtVOOEXYr1vXT_N-322" edge="1">
          <mxGeometry relative="1" as="geometry" />
        </mxCell>
        <mxCell id="Koj_lWtVOOEXYr1vXT_N-321" value="Before()" style="shadow=1;fillColor=#77e6cb;strokeColor=none;fontSize=13;fontStyle=1" parent="1" vertex="1">
          <mxGeometry x="315" y="8330" width="170" height="50" as="geometry" />
        </mxCell>
        <mxCell id="Koj_lWtVOOEXYr1vXT_N-325" style="edgeStyle=none;rounded=0;orthogonalLoop=1;jettySize=auto;html=1;exitX=0.5;exitY=0;exitDx=0;exitDy=0;entryX=0.5;entryY=1;entryDx=0;entryDy=0;startArrow=none;startFill=0;endArrow=classic;endFill=1;strokeColor=#808080;fontSize=14;fontColor=#EA6B66;" parent="1" source="Koj_lWtVOOEXYr1vXT_N-322" target="Koj_lWtVOOEXYr1vXT_N-323" edge="1">
          <mxGeometry relative="1" as="geometry" />
        </mxCell>
        <mxCell id="Koj_lWtVOOEXYr1vXT_N-322" value="After()" style="shadow=1;fillColor=#77e6cb;strokeColor=none;fontSize=13;fontStyle=1" parent="1" vertex="1">
          <mxGeometry x="603" y="8330" width="170" height="50" as="geometry" />
        </mxCell>
        <mxCell id="Koj_lWtVOOEXYr1vXT_N-328" style="edgeStyle=none;rounded=0;orthogonalLoop=1;jettySize=auto;html=1;exitX=0.6;exitY=1.02;exitDx=0;exitDy=0;entryX=0;entryY=0.5;entryDx=0;entryDy=0;startArrow=none;startFill=0;endArrow=classic;endFill=1;strokeColor=#808080;fontSize=14;fontColor=#EA6B66;exitPerimeter=0;" parent="1" source="Koj_lWtVOOEXYr1vXT_N-323" target="Koj_lWtVOOEXYr1vXT_N-327" edge="1">
          <mxGeometry relative="1" as="geometry" />
        </mxCell>
        <mxCell id="Koj_lWtVOOEXYr1vXT_N-329" value="&lt;font color=&quot;#000000&quot;&gt;take&lt;/font&gt;" style="edgeLabel;html=1;align=center;verticalAlign=middle;resizable=0;points=[];fontSize=14;fontColor=#EA6B66;" parent="Koj_lWtVOOEXYr1vXT_N-328" vertex="1" connectable="0">
          <mxGeometry x="-0.2997" y="3" relative="1" as="geometry">
            <mxPoint as="offset" />
          </mxGeometry>
        </mxCell>
        <mxCell id="Koj_lWtVOOEXYr1vXT_N-323" value="Queue" style="shadow=1;fillColor=#77e6cb;strokeColor=none;fontSize=13;fontStyle=1" parent="1" vertex="1">
          <mxGeometry x="737" y="8223" width="170" height="50" as="geometry" />
        </mxCell>
        <mxCell id="Koj_lWtVOOEXYr1vXT_N-331" style="edgeStyle=none;rounded=0;orthogonalLoop=1;jettySize=auto;html=1;exitX=1;exitY=0.5;exitDx=0;exitDy=0;entryX=0;entryY=0.5;entryDx=0;entryDy=0;startArrow=none;startFill=0;endArrow=classic;endFill=1;strokeColor=#808080;fontSize=14;fontColor=#EA6B66;" parent="1" source="Koj_lWtVOOEXYr1vXT_N-327" target="Koj_lWtVOOEXYr1vXT_N-330" edge="1">
          <mxGeometry relative="1" as="geometry" />
        </mxCell>
        <mxCell id="Koj_lWtVOOEXYr1vXT_N-327" value="sender" style="shadow=1;fillColor=#77e6cb;strokeColor=none;fontSize=13;fontStyle=1" parent="1" vertex="1">
          <mxGeometry x="989.25" y="8327" width="170" height="50" as="geometry" />
        </mxCell>
        <mxCell id="Koj_lWtVOOEXYr1vXT_N-330" value="后台" style="shadow=1;fillColor=#77e6cb;strokeColor=none;fontSize=13;fontStyle=1" parent="1" vertex="1">
          <mxGeometry x="1258.25" y="8327" width="170" height="50" as="geometry" />
        </mxCell>
        <mxCell id="RG5hrCJqegroP6gUd4zB-79" value="" style="rounded=0;whiteSpace=wrap;html=1;fillColor=#CCFFFF;fontSize=15;align=left;opacity=50;dashed=1;fontFamily=楷体;" vertex="1" parent="1">
          <mxGeometry x="641.5" y="8997" width="407" height="247" as="geometry" />
        </mxCell>
        <mxCell id="RG5hrCJqegroP6gUd4zB-80" style="edgeStyle=none;rounded=0;orthogonalLoop=1;jettySize=auto;html=1;exitX=0.5;exitY=1;exitDx=0;exitDy=0;startArrow=none;startFill=0;endArrow=classic;endFill=1;strokeColor=#808080;fontSize=15;fontColor=#EA6B66;fontFamily=楷体;" edge="1" parent="1" source="RG5hrCJqegroP6gUd4zB-81" target="RG5hrCJqegroP6gUd4zB-85">
          <mxGeometry relative="1" as="geometry" />
        </mxCell>
        <mxCell id="RG5hrCJqegroP6gUd4zB-81" value="启动时&lt;br&gt;挂载" style="ellipse;whiteSpace=wrap;html=1;aspect=fixed;fillColor=#77e6cb4d;fontSize=15;fontFamily=楷体;" vertex="1" parent="1">
          <mxGeometry x="523" y="8750" width="80" height="80" as="geometry" />
        </mxCell>
        <mxCell id="RG5hrCJqegroP6gUd4zB-82" value="&lt;div style=&quot;font-size: 15px&quot;&gt;&lt;font color=&quot;#000000&quot; face=&quot;helvetica&quot; style=&quot;font-size: 15px ; font-weight: normal&quot;&gt;java -javaagent:&lt;/font&gt;&lt;/div&gt;&lt;div style=&quot;font-size: 15px&quot;&gt;&lt;font color=&quot;#000000&quot; face=&quot;helvetica&quot; style=&quot;font-size: 15px ; font-weight: normal&quot;&gt;matrix-java-agent.jar&lt;/font&gt;&lt;/div&gt;" style="text;whiteSpace=wrap;html=1;fontSize=15;fontColor=#EA6B66;align=left;fontStyle=1;fontFamily=楷体;" vertex="1" parent="1">
          <mxGeometry x="485.75" y="8954" width="163" height="45" as="geometry" />
        </mxCell>
        <mxCell id="RG5hrCJqegroP6gUd4zB-83" style="edgeStyle=none;rounded=0;orthogonalLoop=1;jettySize=auto;html=1;exitX=1;exitY=0.5;exitDx=0;exitDy=0;startArrow=none;startFill=0;endArrow=classic;endFill=1;strokeColor=#808080;fontSize=15;fontColor=#EA6B66;fontFamily=楷体;" edge="1" parent="1" source="RG5hrCJqegroP6gUd4zB-85" target="RG5hrCJqegroP6gUd4zB-88">
          <mxGeometry relative="1" as="geometry" />
        </mxCell>
        <mxCell id="RG5hrCJqegroP6gUd4zB-84" style="edgeStyle=none;rounded=0;orthogonalLoop=1;jettySize=auto;html=1;exitX=0.5;exitY=1;exitDx=0;exitDy=0;startArrow=none;startFill=0;endArrow=classic;endFill=1;strokeColor=#808080;fontSize=15;fontColor=#EA6B66;fontFamily=楷体;" edge="1" parent="1" source="RG5hrCJqegroP6gUd4zB-85">
          <mxGeometry relative="1" as="geometry">
            <mxPoint x="563.5" y="9262" as="targetPoint" />
          </mxGeometry>
        </mxCell>
        <mxCell id="RG5hrCJqegroP6gUd4zB-85" value=" 加载Agent.jar" style="shadow=1;fillColor=#77e6cb;strokeColor=none;fontSize=15;fontStyle=1;fontFamily=楷体;" vertex="1" parent="1">
          <mxGeometry x="478.5" y="8896" width="170" height="50" as="geometry" />
        </mxCell>
        <mxCell id="RG5hrCJqegroP6gUd4zB-86" style="edgeStyle=none;rounded=0;orthogonalLoop=1;jettySize=auto;html=1;exitX=1;exitY=0.5;exitDx=0;exitDy=0;startArrow=none;startFill=0;endArrow=classic;endFill=1;strokeColor=#808080;fontSize=15;fontColor=#EA6B66;fontFamily=楷体;" edge="1" parent="1" source="RG5hrCJqegroP6gUd4zB-88" target="RG5hrCJqegroP6gUd4zB-91">
          <mxGeometry relative="1" as="geometry" />
        </mxCell>
        <mxCell id="RG5hrCJqegroP6gUd4zB-87" style="edgeStyle=none;rounded=0;orthogonalLoop=1;jettySize=auto;html=1;exitX=0.5;exitY=1;exitDx=0;exitDy=0;startArrow=none;startFill=0;endArrow=classic;endFill=1;strokeColor=#808080;fontSize=15;fontColor=#EA6B66;fontFamily=楷体;" edge="1" parent="1" source="RG5hrCJqegroP6gUd4zB-88" target="RG5hrCJqegroP6gUd4zB-95">
          <mxGeometry relative="1" as="geometry" />
        </mxCell>
        <mxCell id="RG5hrCJqegroP6gUd4zB-88" value="run premain(...)" style="shadow=1;fillColor=#77e6cb;strokeColor=none;fontSize=15;fontStyle=1;fontFamily=楷体;" vertex="1" parent="1">
          <mxGeometry x="741.75" y="8896" width="170" height="50" as="geometry" />
        </mxCell>
        <mxCell id="RG5hrCJqegroP6gUd4zB-89" style="edgeStyle=none;rounded=0;orthogonalLoop=1;jettySize=auto;html=1;startArrow=none;startFill=0;endArrow=classic;endFill=1;strokeColor=#808080;fontSize=15;fontColor=#EA6B66;" edge="1" parent="1" source="RG5hrCJqegroP6gUd4zB-91">
          <mxGeometry relative="1" as="geometry">
            <mxPoint x="1273" y="8921" as="targetPoint" />
          </mxGeometry>
        </mxCell>
        <mxCell id="RG5hrCJqegroP6gUd4zB-90" style="edgeStyle=none;rounded=0;orthogonalLoop=1;jettySize=auto;html=1;exitX=0.5;exitY=1;exitDx=0;exitDy=0;startArrow=none;startFill=0;endArrow=classic;endFill=1;strokeColor=#808080;fontSize=15;fontColor=#EA6B66;fontFamily=楷体;" edge="1" parent="1" source="RG5hrCJqegroP6gUd4zB-91">
          <mxGeometry relative="1" as="geometry">
            <mxPoint x="1117" y="9259" as="targetPoint" />
          </mxGeometry>
        </mxCell>
        <mxCell id="RG5hrCJqegroP6gUd4zB-91" value="run main(...)" style="shadow=1;fillColor=#77e6cb;strokeColor=none;fontSize=15;fontStyle=1;fontFamily=楷体;" vertex="1" parent="1">
          <mxGeometry x="1030.5" y="8896" width="170" height="50" as="geometry" />
        </mxCell>
        <mxCell id="RG5hrCJqegroP6gUd4zB-94" style="edgeStyle=none;rounded=0;orthogonalLoop=1;jettySize=auto;html=1;exitX=0.25;exitY=1;exitDx=0;exitDy=0;entryX=0.25;entryY=0;entryDx=0;entryDy=0;startArrow=none;startFill=0;endArrow=classic;endFill=1;strokeColor=#808080;fontSize=15;fontColor=#EA6B66;fontFamily=楷体;" edge="1" parent="1" source="RG5hrCJqegroP6gUd4zB-95" target="RG5hrCJqegroP6gUd4zB-99">
          <mxGeometry relative="1" as="geometry" />
        </mxCell>
        <mxCell id="RG5hrCJqegroP6gUd4zB-95" value="Instrumentation" style="shadow=1;fillColor=#f8cecc;strokeColor=#b85450;fontSize=15;fontStyle=1;fontFamily=楷体;" vertex="1" parent="1">
          <mxGeometry x="742.25" y="9012" width="170" height="50" as="geometry" />
        </mxCell>
        <mxCell id="RG5hrCJqegroP6gUd4zB-96" style="edgeStyle=none;rounded=0;orthogonalLoop=1;jettySize=auto;html=1;startArrow=none;startFill=0;endArrow=classic;endFill=1;strokeColor=#808080;fontSize=15;fontColor=#EA6B66;entryX=0.75;entryY=1;entryDx=0;entryDy=0;fontFamily=楷体;" edge="1" parent="1" target="RG5hrCJqegroP6gUd4zB-99">
          <mxGeometry relative="1" as="geometry">
            <mxPoint x="869.5" y="9264" as="sourcePoint" />
            <mxPoint x="853.5" y="9181" as="targetPoint" />
          </mxGeometry>
        </mxCell>
        <mxCell id="RG5hrCJqegroP6gUd4zB-97" value="ClassLoader" style="shadow=1;fillColor=#77e6cb;strokeColor=none;fontSize=15;fontStyle=1;rounded=1;fontFamily=楷体;" vertex="1" parent="1">
          <mxGeometry x="478.5" y="9266" width="718.5" height="50" as="geometry" />
        </mxCell>
        <mxCell id="RG5hrCJqegroP6gUd4zB-98" style="edgeStyle=none;rounded=0;orthogonalLoop=1;jettySize=auto;html=1;exitX=0.25;exitY=1;exitDx=0;exitDy=0;startArrow=none;startFill=0;endArrow=classic;endFill=1;strokeColor=#808080;fontSize=15;fontColor=#EA6B66;fontFamily=楷体;" edge="1" parent="1" source="RG5hrCJqegroP6gUd4zB-99">
          <mxGeometry relative="1" as="geometry">
            <mxPoint x="784.5" y="9263.833333333332" as="targetPoint" />
          </mxGeometry>
        </mxCell>
        <mxCell id="RG5hrCJqegroP6gUd4zB-99" value="JVMTI" style="shadow=1;fillColor=#77e6cb;strokeColor=none;fontSize=15;fontStyle=1;fontFamily=楷体;" vertex="1" parent="1">
          <mxGeometry x="742.25" y="9120" width="170" height="50" as="geometry" />
        </mxCell>
        <mxCell id="RG5hrCJqegroP6gUd4zB-100" style="edgeStyle=none;rounded=0;orthogonalLoop=1;jettySize=auto;html=1;startArrow=none;startFill=0;endArrow=classic;endFill=1;strokeColor=#808080;fontSize=15;fontColor=#EA6B66;entryX=0.75;entryY=1;entryDx=0;entryDy=0;exitX=0.75;exitY=0;exitDx=0;exitDy=0;fontFamily=楷体;" edge="1" parent="1" source="RG5hrCJqegroP6gUd4zB-99" target="RG5hrCJqegroP6gUd4zB-95">
          <mxGeometry relative="1" as="geometry">
            <mxPoint x="870.5" y="9100" as="sourcePoint" />
            <mxPoint x="880.44" y="9160" as="targetPoint" />
          </mxGeometry>
        </mxCell>
        <mxCell id="RG5hrCJqegroP6gUd4zB-101" value="&lt;font color=&quot;#000000&quot; face=&quot;楷体&quot;&gt;注册字码增强逻辑&lt;br&gt;addTransformer()&lt;/font&gt;" style="text;whiteSpace=wrap;html=1;fontSize=15;fontColor=#EA6B66;fontFamily=楷体;" vertex="1" parent="1">
          <mxGeometry x="648.5" y="9075.496666666666" width="128" height="31" as="geometry" />
        </mxCell>
        <mxCell id="RG5hrCJqegroP6gUd4zB-102" value="&lt;br style=&quot;font-size: 15px;&quot;&gt;监听Class 加载事件" style="text;html=1;align=left;verticalAlign=middle;resizable=0;points=[];autosize=1;fontSize=15;fontFamily=楷体;" vertex="1" parent="1">
          <mxGeometry x="667.5" y="9191" width="142" height="40" as="geometry" />
        </mxCell>
        <mxCell id="RG5hrCJqegroP6gUd4zB-103" value="应用 加载自身&lt;br style=&quot;font-size: 15px;&quot;&gt;需要的jar&amp;amp;class" style="text;html=1;align=left;verticalAlign=middle;resizable=0;points=[];autosize=1;fontSize=15;fontFamily=楷体;" vertex="1" parent="1">
          <mxGeometry x="1115" y="8967.5" width="116" height="40" as="geometry" />
        </mxCell>
        <mxCell id="RG5hrCJqegroP6gUd4zB-104" value="&lt;br style=&quot;font-size: 15px;&quot;&gt;类加载回调" style="text;html=1;align=left;verticalAlign=middle;resizable=0;points=[];autosize=1;fontSize=15;fontFamily=楷体;" vertex="1" parent="1">
          <mxGeometry x="875.5" y="9191" width="85" height="40" as="geometry" />
        </mxCell>
        <mxCell id="RG5hrCJqegroP6gUd4zB-105" value="&lt;br style=&quot;font-size: 15px;&quot;&gt;回调&lt;br style=&quot;font-size: 15px;&quot;&gt;ClassFileTransformer.transform()" style="text;html=1;align=left;verticalAlign=middle;resizable=0;points=[];autosize=1;fontSize=15;fontFamily=楷体;" vertex="1" parent="1">
          <mxGeometry x="869.5" y="9062" width="229" height="58" as="geometry" />
        </mxCell>
      </root>
    </mxGraphModel>
  </diagram>
</mxfile>
